<svg width="27" height="21" viewBox="0 0 27 21" fill="none" xmlns="http://www.w3.org/2000/svg">
<path d="M25.3125 0H0.9375C0.418945 0 0 0.418945 0 0.9375V5.625H26.25V0.9375C26.25 0.418945 25.8311 0 25.3125 0ZM0 19.6875C0 20.2061 0.418945 20.625 0.9375 20.625H25.3125C25.8311 20.625 26.25 20.2061 26.25 19.6875V8.20312H0V19.6875ZM16.9629 14.2969C16.9629 14.168 17.0684 14.0625 17.1973 14.0625H22.0312C22.1602 14.0625 22.2656 14.168 22.2656 14.2969V16.4062C22.2656 16.5352 22.1602 16.6406 22.0312 16.6406H17.1973C17.0684 16.6406 16.9629 16.5352 16.9629 16.4062V14.2969Z" fill="#FF9041" fill-opacity="0.71"/>
</svg>
