<svg width="23" height="24" viewBox="0 0 23 24" fill="none" xmlns="http://www.w3.org/2000/svg">
<path fill-rule="evenodd" clip-rule="evenodd" d="M9.78257 0.5006C10.3232 0.17313 10.9433 0 11.5754 0C12.2075 0 12.8275 0.17313 13.3682 0.5006L14.6413 1.27935C16.4276 2.37123 18.4619 2.61435 20.5057 2.85935C21.1663 2.93873 21.8276 3.01748 22.4819 3.1256C22.4819 3.1256 22.4963 4.27185 22.4813 4.79185L22.3507 9.26123C22.2382 13.0944 20.5338 16.7287 17.6101 19.37C16.2307 20.6156 14.8038 21.7412 13.1644 22.6762C12.6813 22.9495 12.1396 23.1028 11.5849 23.1232C11.0302 23.1435 10.4788 23.0303 9.97694 22.7931C8.08382 21.8931 6.40757 20.7519 4.87694 19.37C1.95319 16.7287 0.248819 13.0944 0.136944 9.26123L0.00694444 4.80623C-0.00868056 4.2781 0.00694444 3.1256 0.00694444 3.1256C0.538194 3.0631 1.07944 3.01123 1.62507 2.95935C4.03319 2.7306 6.52132 2.49435 8.56257 1.24685L9.78319 0.5006H9.78257ZM9.98819 10.0006V5.6256H12.4882V10.0006H16.8632V12.5006H12.4882V16.8756H9.98819V12.5006H5.61319V10.0006H9.98819Z" fill="#FF9041" fill-opacity="0.71"/>
</svg>
