<svg width="22" height="26" viewBox="0 0 22 26" fill="none" xmlns="http://www.w3.org/2000/svg">
<path d="M22 0H0V2.59835L7.98875 8.26274C5.56427 9.01812 3.55641 10.6521 2.40647 12.8057C1.25654 14.9592 1.05863 17.4561 1.85625 19.7474C2.25086 20.8825 2.87845 21.9329 3.70312 22.8386C4.52779 23.7443 5.53336 24.4875 6.6623 25.0257C7.79124 25.5639 9.02139 25.8865 10.2824 25.975C11.5434 26.0635 12.8105 25.9163 14.0112 25.5417C15.9369 24.9437 17.6136 23.7865 18.8022 22.2352C19.9909 20.6838 20.6308 18.8175 20.6308 16.9022C20.6308 14.987 19.9909 13.1207 18.8022 11.5693C17.6136 10.018 15.9369 8.86077 14.0112 8.26274L22 2.59835V0ZM15.0425 22.7355L11 20.5009L6.9575 22.7355L8.03 18.4093L4.46875 15.4991L9.1575 15.1224L11 11.043L12.8425 15.1224L17.5312 15.4991L13.97 18.4093L15.0425 22.7355Z" fill="#FF9041" fill-opacity="0.71"/>
</svg>
