<svg width="30" height="21" viewBox="0 0 30 21" fill="none" xmlns="http://www.w3.org/2000/svg">
<path d="M16.5 12.25H15.75V7.4375C15.75 7.19578 15.5822 7 15.375 7H14.7384C14.5163 7 14.2992 7.07656 14.1145 7.22039L13.3959 7.7793C13.355 7.81113 13.3198 7.85208 13.2923 7.89979C13.2649 7.94751 13.2458 8.00106 13.2362 8.05738C13.2265 8.1137 13.2265 8.1717 13.236 8.22805C13.2456 8.2844 13.2646 8.33799 13.2919 8.38578L13.7081 9.11367C13.7354 9.16148 13.7705 9.20256 13.8114 9.23454C13.8523 9.26652 13.8982 9.28878 13.9465 9.30006C13.9948 9.31133 14.0445 9.3114 14.0928 9.30025C14.1411 9.2891 14.187 9.26695 14.228 9.23508L14.25 9.21812V12.25H13.5C13.2928 12.25 13.125 12.4458 13.125 12.6875V13.5625C13.125 13.8042 13.2928 14 13.5 14H16.5C16.7072 14 16.875 13.8042 16.875 13.5625V12.6875C16.875 12.4458 16.7072 12.25 16.5 12.25ZM28.5 0H1.5C0.671719 0 0 0.783672 0 1.75V19.25C0 20.2163 0.671719 21 1.5 21H28.5C29.3283 21 30 20.2163 30 19.25V1.75C30 0.783672 29.3283 0 28.5 0ZM2.25 18.375V14.875C3.90703 14.875 5.25 16.4418 5.25 18.375H2.25ZM2.25 6.125V2.625H5.25C5.25 4.5582 3.90703 6.125 2.25 6.125ZM15 16.625C12.5147 16.625 10.5 13.8824 10.5 10.5C10.5 7.11703 12.5147 4.375 15 4.375C17.4853 4.375 19.5 7.11703 19.5 10.5C19.5 13.8835 17.4844 16.625 15 16.625ZM27.75 18.375H24.75C24.75 16.4418 26.093 14.875 27.75 14.875V18.375ZM27.75 6.125C26.093 6.125 24.75 4.5582 24.75 2.625H27.75V6.125Z" fill="#FF9041" fill-opacity="0.71"/>
</svg>
