<svg width="168" height="23" viewBox="0 0 168 23" fill="none" xmlns="http://www.w3.org/2000/svg">
<path d="M0.136 1.368C0.472 1.304 0.84 1.248 1.24 1.2C1.656 1.152 2.072 1.112 2.488 1.08C2.904 1.048 3.32 1.024 3.736 1.008C4.152 0.991999 4.544 0.983999 4.912 0.983999C5.712 0.983999 6.48 1.064 7.216 1.224C7.968 1.384 8.624 1.648 9.184 2.016C9.76 2.384 10.216 2.864 10.552 3.456C10.904 4.048 11.08 4.776 11.08 5.64C11.08 6.312 10.976 6.92 10.768 7.464C10.56 8.008 10.272 8.488 9.904 8.904C9.536 9.32 9.096 9.672 8.584 9.96C8.088 10.232 7.544 10.44 6.952 10.584L8.2 11.424L12.712 18H9.952L4.96 10.92L2.536 10.584V18H0.136V1.368ZM4.984 3.048C4.76 3.048 4.528 3.048 4.288 3.048C4.064 3.048 3.84 3.056 3.616 3.072C3.392 3.088 3.184 3.104 2.992 3.12C2.8 3.136 2.648 3.16 2.536 3.192V9H4.504C5.08 9 5.608 8.944 6.088 8.832C6.584 8.704 7.008 8.52 7.36 8.28C7.728 8.024 8.016 7.696 8.224 7.296C8.432 6.896 8.536 6.408 8.536 5.832C8.536 4.968 8.232 4.288 7.624 3.792C7.016 3.296 6.136 3.048 4.984 3.048ZM24.8913 16.968C24.3313 17.384 23.6353 17.72 22.8033 17.976C21.9713 18.216 21.0673 18.336 20.0913 18.336C19.0353 18.336 18.1153 18.184 17.3313 17.88C16.5633 17.56 15.9313 17.112 15.4353 16.536C14.9393 15.96 14.5713 15.264 14.3313 14.448C14.0913 13.632 13.9713 12.72 13.9713 11.712C13.9713 9.552 14.4993 7.904 15.5553 6.768C16.6273 5.616 18.1473 5.04 20.1153 5.04C20.7393 5.04 21.3633 5.112 21.9873 5.256C22.6113 5.384 23.1713 5.64 23.6673 6.024C24.1633 6.392 24.5633 6.904 24.8672 7.56C25.1873 8.216 25.3473 9.072 25.3473 10.128C25.3473 10.384 25.3393 10.68 25.3233 11.016C25.3073 11.352 25.2753 11.68 25.2273 12H16.2273C16.2593 13.472 16.6113 14.584 17.2833 15.336C17.9553 16.088 19.0993 16.464 20.7153 16.464C21.3873 16.464 22.0273 16.352 22.6353 16.128C23.2433 15.888 23.7153 15.608 24.0513 15.288L24.8913 16.968ZM23.2353 10.416C23.2673 9.136 23.0033 8.232 22.4433 7.704C21.8993 7.176 21.1313 6.912 20.1393 6.912C19.0193 6.912 18.1313 7.176 17.4753 7.704C16.8193 8.232 16.4353 9.136 16.3233 10.416H23.2353ZM38.2332 17.136C37.6732 17.536 37.0172 17.832 36.2652 18.024C35.5132 18.232 34.7212 18.336 33.8892 18.336C32.8332 18.336 31.9292 18.176 31.1772 17.856C30.4412 17.536 29.8412 17.088 29.3772 16.512C28.9132 15.936 28.5772 15.24 28.3692 14.424C28.1612 13.608 28.0572 12.704 28.0572 11.712C28.0572 9.584 28.5692 7.944 29.5932 6.792C30.6332 5.624 32.1212 5.04 34.0572 5.04C34.9052 5.04 35.6412 5.12 36.2652 5.28C36.8892 5.424 37.4492 5.608 37.9452 5.832L37.3692 7.632C36.9372 7.408 36.4652 7.232 35.9532 7.104C35.4572 6.976 34.9132 6.912 34.3212 6.912C31.7132 6.912 30.4092 8.512 30.4092 11.712C30.4092 12.32 30.4812 12.912 30.6252 13.488C30.7692 14.048 31.0012 14.552 31.3212 15C31.6412 15.432 32.0572 15.784 32.5692 16.056C33.0972 16.328 33.7372 16.464 34.4892 16.464C35.1612 16.464 35.7452 16.376 36.2412 16.2C36.7532 16.008 37.1772 15.784 37.5132 15.528L38.2332 17.136ZM40.1978 11.712C40.1978 10.672 40.3338 9.744 40.6058 8.928C40.8778 8.096 41.2778 7.392 41.8058 6.816C42.3338 6.24 42.9738 5.8 43.7258 5.496C44.4938 5.192 45.3658 5.04 46.3418 5.04C47.3658 5.04 48.2618 5.208 49.0298 5.544C49.7978 5.88 50.4378 6.352 50.9498 6.96C51.4618 7.552 51.8378 8.256 52.0778 9.072C52.3338 9.872 52.4618 10.752 52.4618 11.712C52.4618 12.736 52.3178 13.656 52.0298 14.472C51.7578 15.288 51.3578 15.984 50.8298 16.56C50.3178 17.136 49.6778 17.576 48.9098 17.88C48.1578 18.184 47.3018 18.336 46.3418 18.336C45.2858 18.336 44.3738 18.168 43.6058 17.832C42.8378 17.496 42.1978 17.032 41.6858 16.44C41.1898 15.848 40.8138 15.152 40.5578 14.352C40.3178 13.536 40.1978 12.656 40.1978 11.712ZM42.5498 11.712C42.5498 12.304 42.6138 12.888 42.7418 13.464C42.8858 14.024 43.1098 14.528 43.4138 14.976C43.7178 15.424 44.1098 15.784 44.5898 16.056C45.0698 16.328 45.6618 16.464 46.3658 16.464C48.8618 16.464 50.1098 14.88 50.1098 11.712C50.1098 11.088 50.0378 10.488 49.8938 9.912C49.7658 9.336 49.5498 8.832 49.2458 8.4C48.9578 7.952 48.5738 7.592 48.0938 7.32C47.6138 7.048 47.0378 6.912 46.3658 6.912C45.1178 6.912 44.1658 7.312 43.5098 8.112C42.8698 8.896 42.5498 10.096 42.5498 11.712ZM66.7864 18.072C66.7864 19.72 66.2984 20.944 65.3224 21.744C64.3624 22.56 62.9464 22.968 61.0744 22.968C59.9864 22.968 59.1064 22.904 58.4344 22.776C57.7624 22.648 57.1864 22.472 56.7064 22.248L57.2344 20.256C57.4424 20.352 57.6824 20.448 57.9544 20.544C58.2264 20.656 58.5144 20.752 58.8184 20.832C59.1224 20.912 59.4264 20.976 59.7304 21.024C60.0504 21.072 60.3544 21.096 60.6424 21.096C61.4264 21.096 62.0744 21.024 62.5864 20.88C63.0984 20.752 63.5064 20.544 63.8104 20.256C64.1144 19.968 64.3224 19.6 64.4344 19.152C64.5464 18.704 64.6024 18.168 64.6024 17.544V16.656H64.3384C64.0824 17.072 63.6344 17.408 62.9944 17.664C62.3544 17.92 61.5784 18.048 60.6664 18.048C58.8424 18.048 57.4984 17.56 56.6344 16.584C55.7704 15.592 55.3384 14 55.3384 11.808C55.3384 9.648 55.8984 7.984 57.0184 6.816C58.1384 5.648 59.8024 5.064 62.0104 5.064C63.0664 5.064 63.9704 5.128 64.7224 5.256C65.4904 5.384 66.1784 5.552 66.7864 5.76V18.072ZM61.1464 16.176C62.1224 16.176 62.8824 15.928 63.4264 15.432C63.9864 14.936 64.3704 14.288 64.5784 13.488V7.296C64.2104 7.184 63.7864 7.096 63.3064 7.032C62.8264 6.968 62.2824 6.936 61.6744 6.936C60.4264 6.936 59.4504 7.336 58.7464 8.136C58.0424 8.92 57.6904 10.128 57.6904 11.76C57.6904 13.168 57.9464 14.256 58.4584 15.024C58.9864 15.792 59.8824 16.176 61.1464 16.176ZM80.0093 18V11.04C80.0093 9.696 79.7933 8.688 79.3613 8.016C78.9293 7.344 78.1613 7.008 77.0573 7.008C76.0813 7.008 75.2653 7.264 74.6093 7.776C73.9693 8.272 73.5213 8.912 73.2653 9.696V18H71.0573V5.4H72.5933L73.0253 7.08H73.2413C73.7053 6.504 74.3053 6.024 75.0413 5.64C75.7933 5.24 76.6893 5.04 77.7293 5.04C78.4653 5.04 79.1133 5.128 79.6733 5.304C80.2333 5.464 80.6973 5.76 81.0653 6.192C81.4493 6.608 81.7373 7.176 81.9293 7.896C82.1213 8.6 82.2173 9.496 82.2173 10.584V18H80.0093ZM87.0563 5.4H89.2643V18H87.0563V5.4ZM86.6003 2.4C86.6003 2.032 86.7443 1.704 87.0323 1.416C87.3203 1.112 87.6963 0.959999 88.1603 0.959999C88.6243 0.959999 89.0083 1.112 89.3123 1.416C89.6163 1.704 89.7683 2.032 89.7683 2.4C89.7683 2.768 89.6163 3.096 89.3123 3.384C89.0083 3.656 88.6243 3.792 88.1603 3.792C87.6963 3.792 87.3203 3.656 87.0323 3.384C86.7443 3.096 86.6003 2.768 86.6003 2.4ZM93.0895 16.104L99.3055 8.52L100.986 7.272H93.0895V5.4H103.002V7.296L96.7135 14.952L95.0335 16.128H103.002V18H93.0895V16.104ZM116.274 16.968C115.714 17.384 115.018 17.72 114.186 17.976C113.354 18.216 112.45 18.336 111.474 18.336C110.418 18.336 109.498 18.184 108.714 17.88C107.946 17.56 107.314 17.112 106.818 16.536C106.322 15.96 105.954 15.264 105.714 14.448C105.474 13.632 105.354 12.72 105.354 11.712C105.354 9.552 105.882 7.904 106.938 6.768C108.01 5.616 109.53 5.04 111.498 5.04C112.122 5.04 112.746 5.112 113.37 5.256C113.994 5.384 114.554 5.64 115.05 6.024C115.546 6.392 115.946 6.904 116.25 7.56C116.57 8.216 116.73 9.072 116.73 10.128C116.73 10.384 116.722 10.68 116.706 11.016C116.69 11.352 116.658 11.68 116.61 12H107.61C107.642 13.472 107.994 14.584 108.666 15.336C109.338 16.088 110.482 16.464 112.098 16.464C112.77 16.464 113.41 16.352 114.018 16.128C114.626 15.888 115.098 15.608 115.434 15.288L116.274 16.968ZM114.618 10.416C114.65 9.136 114.386 8.232 113.826 7.704C113.282 7.176 112.514 6.912 111.522 6.912C110.402 6.912 109.514 7.176 108.858 7.704C108.202 8.232 107.818 9.136 107.706 10.416H114.618ZM131.17 13.656C131.17 14.472 131.178 15.24 131.194 15.96C131.226 16.664 131.306 17.36 131.434 18.048H129.97L129.418 16.128H129.178C128.81 16.768 128.266 17.296 127.546 17.712C126.842 18.128 126.018 18.336 125.074 18.336C123.266 18.336 121.914 17.8 121.018 16.728C120.138 15.656 119.698 14.008 119.698 11.784C119.698 9.64 120.242 8 121.33 6.864C122.434 5.712 123.978 5.136 125.962 5.136C126.298 5.136 126.594 5.152 126.85 5.184C127.122 5.2 127.37 5.224 127.594 5.256C127.834 5.288 128.058 5.336 128.266 5.4C128.49 5.464 128.722 5.528 128.962 5.592V1.2H131.17V13.656ZM128.962 7.728C128.594 7.456 128.194 7.272 127.762 7.176C127.346 7.064 126.786 7.008 126.082 7.008C124.786 7.008 123.778 7.384 123.058 8.136C122.354 8.888 122.002 10.112 122.002 11.808C122.002 12.48 122.066 13.104 122.194 13.68C122.322 14.24 122.522 14.728 122.794 15.144C123.066 15.56 123.426 15.888 123.874 16.128C124.322 16.352 124.874 16.464 125.53 16.464C126.506 16.464 127.266 16.224 127.81 15.744C128.354 15.248 128.738 14.52 128.962 13.56V7.728ZM142.448 1.2H144.656V6.96H144.896C145.264 6.32 145.792 5.848 146.48 5.544C147.168 5.224 147.896 5.064 148.664 5.064C150.408 5.064 151.728 5.6 152.624 6.672C153.536 7.728 153.992 9.328 153.992 11.472C153.992 13.664 153.4 15.336 152.216 16.488C151.032 17.64 149.368 18.216 147.224 18.216C146.168 18.216 145.208 18.128 144.344 17.952C143.496 17.776 142.864 17.568 142.448 17.328V1.2ZM148.352 6.936C147.84 6.936 147.384 7.016 146.984 7.176C146.6 7.336 146.256 7.56 145.952 7.848C145.648 8.12 145.384 8.44 145.16 8.808C144.952 9.16 144.784 9.528 144.656 9.912V15.888C145.44 16.192 146.392 16.344 147.512 16.344C148.776 16.344 149.776 15.96 150.512 15.192C151.264 14.408 151.64 13.16 151.64 11.448C151.64 10.808 151.576 10.216 151.448 9.672C151.32 9.112 151.12 8.632 150.848 8.232C150.576 7.832 150.232 7.52 149.816 7.296C149.416 7.056 148.928 6.936 148.352 6.936ZM161.172 13.368L161.916 15.792H162.228L162.828 13.344L165.444 5.4H167.7L163.572 16.8C163.268 17.584 162.956 18.344 162.636 19.08C162.332 19.816 161.988 20.464 161.604 21.024C161.236 21.6 160.82 22.056 160.356 22.392C159.908 22.744 159.388 22.92 158.796 22.92C158.156 22.92 157.612 22.848 157.164 22.704L157.524 20.832C157.764 20.912 158.004 20.952 158.244 20.952C158.564 20.952 158.852 20.912 159.108 20.832C159.38 20.752 159.628 20.608 159.852 20.4C160.076 20.192 160.276 19.896 160.452 19.512C160.644 19.144 160.82 18.664 160.98 18.072L155.34 5.4H157.956L161.172 13.368Z" fill="white"/>
</svg>
