<svg width="836" height="327" viewBox="0 0 836 327" fill="none" xmlns="http://www.w3.org/2000/svg">
<path d="M22.615 30.44C22.615 29.3033 22.1383 28.405 21.185 27.745C20.2317 27.085 19.04 26.48 17.61 25.93C16.2167 25.38 14.695 24.83 13.045 24.28C11.395 23.73 9.855 22.9967 8.425 22.08C7.03167 21.1633 5.85833 20.0083 4.905 18.615C3.95167 17.2217 3.475 15.4067 3.475 13.17C3.475 11.2633 3.805 9.595 4.465 8.165C5.16167 6.69833 6.115 5.50666 7.325 4.59C8.57167 3.63666 10.0567 2.92167 11.78 2.445C13.54 1.96833 15.465 1.73 17.555 1.73C19.975 1.73 22.2667 1.95 24.43 2.39C26.63 2.79333 28.4267 3.38 29.82 4.15L27.235 10.97C26.795 10.7133 26.2267 10.4567 25.53 10.2C24.87 9.90667 24.1 9.66833 23.22 9.485C22.34 9.265 21.405 9.1 20.415 8.99C19.425 8.84333 18.4167 8.77 17.39 8.77C15.5567 8.77 14.1267 9.1 13.1 9.76C12.11 10.3833 11.615 11.2633 11.615 12.4C11.615 13.5367 12.0917 14.4533 13.045 15.15C13.9983 15.81 15.1717 16.4333 16.565 17.02C17.995 17.57 19.535 18.1383 21.185 18.725C22.835 19.275 24.3567 20.0083 25.75 20.925C27.18 21.805 28.3717 22.9233 29.325 24.28C30.2783 25.6367 30.755 27.3783 30.755 29.505C30.755 31.6317 30.3883 33.465 29.655 35.005C28.9217 36.545 27.8767 37.8283 26.52 38.855C25.2 39.845 23.605 40.5783 21.735 41.055C19.865 41.5317 17.8117 41.77 15.575 41.77C14.0717 41.77 12.6417 41.6783 11.285 41.495C9.965 41.3483 8.73667 41.165 7.6 40.945C6.46333 40.6883 5.455 40.4317 4.575 40.175C3.73167 39.8817 3.05333 39.6067 2.54 39.35L5.235 32.475C5.63833 32.695 6.18833 32.9333 6.885 33.19C7.61833 33.4467 8.425 33.7033 9.305 33.96C10.185 34.18 11.12 34.3633 12.11 34.51C13.1367 34.6567 14.1633 34.73 15.19 34.73C17.61 34.73 19.4433 34.3817 20.69 33.685C21.9733 32.9883 22.615 31.9067 22.615 30.44ZM37.5307 12.125H45.2307V41H37.5307V12.125ZM36.3757 4.92C36.3757 3.74667 36.7974 2.775 37.6407 2.005C38.4841 1.19833 39.6757 0.795 41.2157 0.795C42.7924 0.795 44.0391 1.19833 44.9557 2.005C45.8724 2.81166 46.3307 3.78333 46.3307 4.92C46.3307 5.98333 45.8724 6.9 44.9557 7.67C44.0391 8.44 42.7924 8.825 41.2157 8.825C39.6757 8.825 38.4841 8.44 37.6407 7.67C36.7974 6.9 36.3757 5.98333 36.3757 4.92ZM72.0918 41V25.93C72.0918 23.1433 71.7985 21.145 71.2118 19.935C70.6251 18.725 69.4151 18.12 67.5818 18.12C66.0418 18.12 64.8135 18.505 63.8968 19.275C62.9801 20.0083 62.2651 20.98 61.7518 22.19V41H54.0518V12.125H59.9918L60.8718 16.14H61.5868C62.0635 15.5167 62.6135 14.9117 63.2368 14.325C63.8601 13.7383 64.5385 13.225 65.2718 12.785C66.0418 12.345 66.8851 11.9967 67.8018 11.74C68.7551 11.4467 69.8185 11.3 70.9918 11.3C72.9351 11.3 74.5485 11.74 75.8318 12.62C77.1518 13.4633 78.1968 14.8933 78.9668 16.91C80.0301 15.15 81.3135 13.775 82.8168 12.785C84.3568 11.795 86.1351 11.3 88.1518 11.3C89.9118 11.3 91.3968 11.5017 92.6068 11.905C93.8535 12.3083 94.8618 13.005 95.6318 13.995C96.4018 14.985 96.9518 16.3233 97.2818 18.01C97.6485 19.6967 97.8318 21.805 97.8318 24.335V41H90.1318V25.545C90.1318 24.335 90.0768 23.2717 89.9668 22.355C89.8568 21.4383 89.6368 20.6683 89.3068 20.045C88.9768 19.385 88.5001 18.9083 87.8768 18.615C87.2901 18.285 86.5018 18.12 85.5118 18.12C83.9718 18.12 82.7251 18.5233 81.7718 19.33C80.8551 20.1 80.1951 21.1817 79.7918 22.575V41H72.0918ZM105.775 12.125H111.275L112.21 15.7H112.87C114.007 14.2333 115.327 13.1333 116.83 12.4C118.334 11.6667 120.094 11.3 122.11 11.3C125.997 11.3 128.912 12.4733 130.855 14.82C132.799 17.13 133.77 20.815 133.77 25.875C133.77 28.295 133.459 30.495 132.835 32.475C132.212 34.4183 131.295 36.105 130.085 37.535C128.875 38.9283 127.372 40.01 125.575 40.78C123.815 41.5133 121.78 41.88 119.47 41.88C118.224 41.88 117.142 41.7517 116.225 41.495C115.309 41.275 114.392 40.9633 113.475 40.56V51.945H105.775V12.125ZM119.745 17.735C117.985 17.735 116.629 18.1383 115.675 18.945C114.722 19.715 113.989 20.925 113.475 22.575V33.795C114.099 34.3083 114.795 34.7117 115.565 35.005C116.335 35.2983 117.307 35.445 118.48 35.445C120.974 35.445 122.825 34.675 124.035 33.135C125.245 31.5583 125.85 29.065 125.85 25.655C125.85 23.1983 125.374 21.2733 124.42 19.88C123.504 18.45 121.945 17.735 119.745 17.735ZM147.908 30.88C147.908 33.6667 148.806 35.06 150.603 35.06C151.116 35.06 151.593 35.0233 152.033 34.95C152.51 34.84 153.06 34.675 153.683 34.455L154.618 40.45C153.885 40.78 152.84 41.0917 151.483 41.385C150.163 41.715 148.788 41.88 147.358 41.88C145.048 41.88 143.27 41.3667 142.023 40.34C140.813 39.3133 140.208 37.6267 140.208 35.28V2.5H147.908V30.88ZM159.508 12.125H167.208V41H159.508V12.125ZM158.353 4.92C158.353 3.74667 158.775 2.775 159.618 2.005C160.462 1.19833 161.653 0.795 163.193 0.795C164.77 0.795 166.017 1.19833 166.933 2.005C167.85 2.81166 168.308 3.78333 168.308 4.92C168.308 5.98333 167.85 6.9 166.933 7.67C166.017 8.44 164.77 8.825 163.193 8.825C161.653 8.825 160.462 8.44 159.618 7.67C158.775 6.9 158.353 5.98333 158.353 4.92ZM175.974 33.52C176.488 33.7767 177.074 34.0333 177.734 34.29C178.431 34.5467 179.164 34.785 179.934 35.005C180.741 35.225 181.548 35.4083 182.354 35.555C183.198 35.7017 184.041 35.775 184.884 35.775C186.168 35.775 187.158 35.5733 187.854 35.17C188.588 34.7667 188.954 34.015 188.954 32.915C188.954 32.035 188.478 31.3933 187.524 30.99C186.571 30.55 185.398 30.1283 184.004 29.725C182.978 29.4317 181.896 29.0833 180.759 28.68C179.659 28.2767 178.633 27.745 177.679 27.085C176.763 26.3883 175.993 25.49 175.369 24.39C174.783 23.29 174.489 21.8967 174.489 20.21C174.489 17.3133 175.388 15.1133 177.184 13.61C178.981 12.07 181.566 11.3 184.939 11.3C187.139 11.3 189.193 11.5017 191.099 11.905C193.043 12.2717 194.601 12.7117 195.774 13.225L194.179 19.055C193.226 18.6883 191.998 18.3217 190.494 17.955C189.028 17.5517 187.524 17.35 185.984 17.35C184.701 17.35 183.748 17.5517 183.124 17.955C182.501 18.3217 182.189 18.9817 182.189 19.935C182.189 20.7783 182.666 21.42 183.619 21.86C184.609 22.2633 185.801 22.6667 187.194 23.07C188.221 23.3633 189.284 23.7117 190.384 24.115C191.521 24.4817 192.548 24.995 193.464 25.655C194.381 26.315 195.133 27.1767 195.719 28.24C196.343 29.2667 196.654 30.5683 196.654 32.145C196.654 35.225 195.646 37.6083 193.629 39.295C191.649 40.9817 188.661 41.825 184.664 41.825C182.501 41.825 180.484 41.6233 178.614 41.22C176.744 40.8533 175.223 40.3033 174.049 39.57L175.974 33.52ZM199.096 12.125H203.496V8.165L211.196 6.13V12.125H218.951V18.56H211.196V28.57C211.196 30.88 211.416 32.5483 211.856 33.575C212.333 34.565 213.25 35.06 214.606 35.06C215.45 35.06 216.165 35.005 216.751 34.895C217.338 34.7483 217.961 34.5283 218.621 34.235L220.216 40.01C219.043 40.5233 217.686 40.9633 216.146 41.33C214.643 41.6967 213.176 41.88 211.746 41.88C208.886 41.88 206.796 41.1833 205.476 39.79C204.156 38.36 203.496 36.0867 203.496 32.97V18.56H199.096V12.125ZM225.788 12.125H233.488V41H225.788V12.125ZM224.633 4.92C224.633 3.74667 225.054 2.775 225.898 2.005C226.741 1.19833 227.933 0.795 229.473 0.795C231.049 0.795 232.296 1.19833 233.213 2.005C234.129 2.81166 234.588 3.78333 234.588 4.92C234.588 5.98333 234.129 6.9 233.213 7.67C232.296 8.44 231.049 8.825 229.473 8.825C227.933 8.825 226.741 8.44 225.898 7.67C225.054 6.9 224.633 5.98333 224.633 4.92ZM264.089 39.24C262.842 40.0833 261.339 40.725 259.579 41.165C257.855 41.605 256.059 41.825 254.189 41.825C251.695 41.825 249.587 41.4583 247.864 40.725C246.177 39.9917 244.784 38.9467 243.684 37.59C242.62 36.2333 241.85 34.6383 241.374 32.805C240.897 30.935 240.659 28.8633 240.659 26.59C240.659 21.7867 241.832 18.0467 244.179 15.37C246.562 12.6567 250.009 11.3 254.519 11.3C256.719 11.3 258.515 11.4833 259.909 11.85C261.339 12.18 262.604 12.62 263.704 13.17L261.834 19.33C260.88 18.9267 259.927 18.6333 258.974 18.45C258.057 18.23 256.975 18.12 255.729 18.12C253.419 18.12 251.64 18.7983 250.394 20.155C249.184 21.475 248.579 23.62 248.579 26.59C248.579 27.7633 248.725 28.8633 249.019 29.89C249.312 30.88 249.77 31.76 250.394 32.53C251.017 33.3 251.805 33.905 252.759 34.345C253.712 34.785 254.83 35.005 256.114 35.005C257.654 35.005 258.864 34.8767 259.744 34.62C260.66 34.3267 261.522 33.9417 262.329 33.465L264.089 39.24ZM304.974 12.125C305.964 14.545 306.936 16.9833 307.889 19.44C308.843 21.8967 309.814 24.335 310.804 26.755L311.904 31.595H312.729L313.554 26.7C314.214 24.2433 314.893 21.8233 315.589 19.44C316.286 17.02 316.964 14.5817 317.624 12.125H324.664L314.819 41.275H309.264C308.274 38.745 307.211 36.105 306.074 33.355C304.938 30.5683 303.874 27.91 302.884 25.38L302.114 21.64H301.124C301.014 22.2633 300.886 22.905 300.739 23.565C300.593 24.1883 300.464 24.8117 300.354 25.435L294.359 41.275H288.529L278.409 12.125H286.769L291.389 26.37L292.159 31.705H292.984L294.084 26.315L299.309 12.125H304.974ZM327.81 14.105C329.46 13.3717 331.477 12.7667 333.86 12.29C336.28 11.8133 338.773 11.575 341.34 11.575C343.357 11.575 345.043 11.8133 346.4 12.29C347.793 12.7667 348.893 13.4633 349.7 14.38C350.507 15.26 351.075 16.3417 351.405 17.625C351.772 18.8717 351.955 20.265 351.955 21.805C351.955 23.675 351.882 25.5267 351.735 27.36C351.588 29.1933 351.515 31.1367 351.515 33.19C351.515 34.5833 351.607 35.94 351.79 37.26C351.973 38.58 352.267 39.845 352.67 41.055H346.4L345.135 36.765H344.475C343.522 38.0483 342.312 39.1483 340.845 40.065C339.378 40.9817 337.49 41.44 335.18 41.44C333.787 41.44 332.503 41.2383 331.33 40.835C330.193 40.4317 329.203 39.8633 328.36 39.13C327.553 38.36 326.912 37.4617 326.435 36.435C325.995 35.4083 325.775 34.29 325.775 33.08C325.775 29.8167 326.857 27.36 329.02 25.71C331.22 24.0233 334.538 23.18 338.975 23.18C340.002 23.18 341.028 23.2717 342.055 23.455C343.082 23.6017 343.797 23.7117 344.2 23.785C344.31 23.015 344.365 22.355 344.365 21.805C344.365 20.4117 344.017 19.385 343.32 18.725C342.623 18.065 341.322 17.735 339.415 17.735C337.655 17.735 335.932 17.955 334.245 18.395C332.595 18.7983 331.128 19.3117 329.845 19.935L327.81 14.105ZM337.875 35.28C339.598 35.28 340.973 34.8767 342 34.07C343.027 33.2633 343.778 32.42 344.255 31.54V28.24C344.072 28.1667 343.778 28.0933 343.375 28.02C343.008 27.9467 342.587 27.8733 342.11 27.8C341.67 27.7267 341.212 27.6717 340.735 27.635C340.295 27.5983 339.892 27.58 339.525 27.58C337.545 27.58 336.078 27.9467 335.125 28.68C334.172 29.3767 333.695 30.2567 333.695 31.32C333.695 32.64 334.062 33.63 334.795 34.29C335.565 34.95 336.592 35.28 337.875 35.28ZM370.496 28.13L371.706 32.75H372.256L373.301 28.13L378.196 12.125H386.061L376.491 38.25C375.684 40.4133 374.914 42.3567 374.181 44.08C373.484 45.8033 372.714 47.27 371.871 48.48C371.027 49.69 370.074 50.6067 369.011 51.23C367.984 51.89 366.756 52.22 365.326 52.22C364.372 52.22 363.456 52.1283 362.576 51.945C361.732 51.7983 360.999 51.56 360.376 51.23L361.971 45.29C362.521 45.4733 363.089 45.565 363.676 45.565C364.189 45.565 364.684 45.51 365.161 45.4C365.637 45.29 366.077 45.07 366.481 44.74C366.884 44.4467 367.251 44.0067 367.581 43.42C367.947 42.87 368.259 42.1183 368.516 41.165L355.316 12.125H364.611L370.496 28.13ZM399.116 12.125H403.516V8.165L411.216 6.13V12.125H418.971V18.56H411.216V28.57C411.216 30.88 411.436 32.5483 411.876 33.575C412.352 34.565 413.269 35.06 414.626 35.06C415.469 35.06 416.184 35.005 416.771 34.895C417.357 34.7483 417.981 34.5283 418.641 34.235L420.236 40.01C419.062 40.5233 417.706 40.9633 416.166 41.33C414.662 41.6967 413.196 41.88 411.766 41.88C408.906 41.88 406.816 41.1833 405.496 39.79C404.176 38.36 403.516 36.0867 403.516 32.97V18.56H399.116V12.125ZM422.9 26.59C422.9 21.8233 424.165 18.0833 426.695 15.37C429.225 12.6567 432.837 11.3 437.53 11.3C439.987 11.3 442.132 11.685 443.965 12.455C445.798 13.225 447.32 14.3067 448.53 15.7C449.74 17.0567 450.638 18.67 451.225 20.54C451.848 22.3733 452.16 24.39 452.16 26.59C452.16 28.9367 451.83 31.0633 451.17 32.97C450.51 34.84 449.557 36.435 448.31 37.755C447.063 39.075 445.523 40.0833 443.69 40.78C441.893 41.4767 439.84 41.825 437.53 41.825C435.037 41.825 432.873 41.44 431.04 40.67C429.207 39.9 427.685 38.8367 426.475 37.48C425.265 36.0867 424.367 34.4733 423.78 32.64C423.193 30.77 422.9 28.7533 422.9 26.59ZM430.82 26.59C430.82 27.8 430.948 28.9367 431.205 30C431.462 31.0633 431.847 31.9983 432.36 32.805C432.91 33.575 433.607 34.1983 434.45 34.675C435.293 35.1517 436.32 35.39 437.53 35.39C442.003 35.39 444.24 32.4567 444.24 26.59C444.24 25.3067 444.112 24.1333 443.855 23.07C443.635 21.97 443.25 21.035 442.7 20.265C442.187 19.4583 441.49 18.835 440.61 18.395C439.767 17.955 438.74 17.735 437.53 17.735C435.44 17.735 433.79 18.4317 432.58 19.825C431.407 21.2183 430.82 23.4733 430.82 26.59ZM473.367 14.105C475.017 13.3717 477.033 12.7667 479.417 12.29C481.837 11.8133 484.33 11.575 486.897 11.575C488.913 11.575 490.6 11.8133 491.957 12.29C493.35 12.7667 494.45 13.4633 495.257 14.38C496.063 15.26 496.632 16.3417 496.962 17.625C497.328 18.8717 497.512 20.265 497.512 21.805C497.512 23.675 497.438 25.5267 497.292 27.36C497.145 29.1933 497.072 31.1367 497.072 33.19C497.072 34.5833 497.163 35.94 497.347 37.26C497.53 38.58 497.823 39.845 498.227 41.055H491.957L490.692 36.765H490.032C489.078 38.0483 487.868 39.1483 486.402 40.065C484.935 40.9817 483.047 41.44 480.737 41.44C479.343 41.44 478.06 41.2383 476.887 40.835C475.75 40.4317 474.76 39.8633 473.917 39.13C473.11 38.36 472.468 37.4617 471.992 36.435C471.552 35.4083 471.332 34.29 471.332 33.08C471.332 29.8167 472.413 27.36 474.577 25.71C476.777 24.0233 480.095 23.18 484.532 23.18C485.558 23.18 486.585 23.2717 487.612 23.455C488.638 23.6017 489.353 23.7117 489.757 23.785C489.867 23.015 489.922 22.355 489.922 21.805C489.922 20.4117 489.573 19.385 488.877 18.725C488.18 18.065 486.878 17.735 484.972 17.735C483.212 17.735 481.488 17.955 479.802 18.395C478.152 18.7983 476.685 19.3117 475.402 19.935L473.367 14.105ZM483.432 35.28C485.155 35.28 486.53 34.8767 487.557 34.07C488.583 33.2633 489.335 32.42 489.812 31.54V28.24C489.628 28.1667 489.335 28.0933 488.932 28.02C488.565 27.9467 488.143 27.8733 487.667 27.8C487.227 27.7267 486.768 27.6717 486.292 27.635C485.852 27.5983 485.448 27.58 485.082 27.58C483.102 27.58 481.635 27.9467 480.682 28.68C479.728 29.3767 479.252 30.2567 479.252 31.32C479.252 32.64 479.618 33.63 480.352 34.29C481.122 34.95 482.148 35.28 483.432 35.28ZM527.272 39.24C526.026 40.0833 524.522 40.725 522.762 41.165C521.039 41.605 519.242 41.825 517.372 41.825C514.879 41.825 512.771 41.4583 511.047 40.725C509.361 39.9917 507.967 38.9467 506.867 37.59C505.804 36.2333 505.034 34.6383 504.557 32.805C504.081 30.935 503.842 28.8633 503.842 26.59C503.842 21.7867 505.016 18.0467 507.362 15.37C509.746 12.6567 513.192 11.3 517.702 11.3C519.902 11.3 521.699 11.4833 523.092 11.85C524.522 12.18 525.787 12.62 526.887 13.17L525.017 19.33C524.064 18.9267 523.111 18.6333 522.157 18.45C521.241 18.23 520.159 18.12 518.912 18.12C516.602 18.12 514.824 18.7983 513.577 20.155C512.367 21.475 511.762 23.62 511.762 26.59C511.762 27.7633 511.909 28.8633 512.202 29.89C512.496 30.88 512.954 31.76 513.577 32.53C514.201 33.3 514.989 33.905 515.942 34.345C516.896 34.785 518.014 35.005 519.297 35.005C520.837 35.005 522.047 34.8767 522.927 34.62C523.844 34.3267 524.706 33.9417 525.512 33.465L527.272 39.24ZM556.613 38.36C555.366 39.3133 553.661 40.1383 551.498 40.835C549.371 41.495 547.08 41.825 544.623 41.825C539.673 41.825 536.043 40.4683 533.733 37.755C531.423 35.0417 530.268 31.32 530.268 26.59C530.268 21.5667 531.57 17.7717 534.173 15.205C536.776 12.6017 540.443 11.3 545.173 11.3C546.713 11.3 548.235 11.5017 549.738 11.905C551.241 12.2717 552.58 12.9133 553.753 13.83C554.926 14.71 555.861 15.92 556.558 17.46C557.291 18.9633 557.658 20.8333 557.658 23.07C557.658 23.84 557.603 24.6833 557.493 25.6C557.42 26.5167 557.273 27.47 557.053 28.46H537.803C537.986 30.9533 538.701 32.805 539.948 34.015C541.231 35.1883 543.303 35.775 546.163 35.775C547.886 35.775 549.426 35.5367 550.783 35.06C552.176 34.5467 553.24 34.0333 553.973 33.52L556.613 38.36ZM545.063 17.35C542.79 17.35 541.103 17.9733 540.003 19.22C538.903 20.43 538.261 21.9883 538.078 23.895H550.508C550.655 21.8783 550.288 20.2833 549.408 19.11C548.528 17.9367 547.08 17.35 545.063 17.35ZM579.389 2.5H604.194V9.65H587.529V18.01H602.654V25.16H587.529V33.85H604.469V41H579.389V2.5ZM628.967 41V25.93C628.967 23.1433 628.673 21.145 628.087 19.935C627.5 18.725 626.29 18.12 624.457 18.12C622.917 18.12 621.688 18.505 620.772 19.275C619.855 20.0083 619.14 20.98 618.627 22.19V41H610.927V12.125H616.867L617.747 16.14H618.462C618.938 15.5167 619.488 14.9117 620.112 14.325C620.735 13.7383 621.413 13.225 622.147 12.785C622.917 12.345 623.76 11.9967 624.677 11.74C625.63 11.4467 626.693 11.3 627.867 11.3C629.81 11.3 631.423 11.74 632.707 12.62C634.027 13.4633 635.072 14.8933 635.842 16.91C636.905 15.15 638.188 13.775 639.692 12.785C641.232 11.795 643.01 11.3 645.027 11.3C646.787 11.3 648.272 11.5017 649.482 11.905C650.728 12.3083 651.737 13.005 652.507 13.995C653.277 14.985 653.827 16.3233 654.157 18.01C654.523 19.6967 654.707 21.805 654.707 24.335V41H647.007V25.545C647.007 24.335 646.952 23.2717 646.842 22.355C646.732 21.4383 646.512 20.6683 646.182 20.045C645.852 19.385 645.375 18.9083 644.752 18.615C644.165 18.285 643.377 18.12 642.387 18.12C640.847 18.12 639.6 18.5233 638.647 19.33C637.73 20.1 637.07 21.1817 636.667 22.575V41H628.967ZM662.65 12.125H668.15L669.085 15.7H669.745C670.882 14.2333 672.202 13.1333 673.705 12.4C675.209 11.6667 676.969 11.3 678.985 11.3C682.872 11.3 685.787 12.4733 687.73 14.82C689.674 17.13 690.645 20.815 690.645 25.875C690.645 28.295 690.334 30.495 689.71 32.475C689.087 34.4183 688.17 36.105 686.96 37.535C685.75 38.9283 684.247 40.01 682.45 40.78C680.69 41.5133 678.655 41.88 676.345 41.88C675.099 41.88 674.017 41.7517 673.1 41.495C672.184 41.275 671.267 40.9633 670.35 40.56V51.945H662.65V12.125ZM676.62 17.735C674.86 17.735 673.504 18.1383 672.55 18.945C671.597 19.715 670.864 20.925 670.35 22.575V33.795C670.974 34.3083 671.67 34.7117 672.44 35.005C673.21 35.2983 674.182 35.445 675.355 35.445C677.849 35.445 679.7 34.675 680.91 33.135C682.12 31.5583 682.725 29.065 682.725 25.655C682.725 23.1983 682.249 21.2733 681.295 19.88C680.379 18.45 678.82 17.735 676.62 17.735ZM704.783 30.88C704.783 33.6667 705.681 35.06 707.478 35.06C707.991 35.06 708.468 35.0233 708.908 34.95C709.385 34.84 709.935 34.675 710.558 34.455L711.493 40.45C710.76 40.78 709.715 41.0917 708.358 41.385C707.038 41.715 705.663 41.88 704.233 41.88C701.923 41.88 700.145 41.3667 698.898 40.34C697.688 39.3133 697.083 37.6267 697.083 35.28V2.5H704.783V30.88ZM713.798 26.59C713.798 21.8233 715.063 18.0833 717.593 15.37C720.123 12.6567 723.735 11.3 728.428 11.3C730.885 11.3 733.03 11.685 734.863 12.455C736.697 13.225 738.218 14.3067 739.428 15.7C740.638 17.0567 741.537 18.67 742.123 20.54C742.747 22.3733 743.058 24.39 743.058 26.59C743.058 28.9367 742.728 31.0633 742.068 32.97C741.408 34.84 740.455 36.435 739.208 37.755C737.962 39.075 736.422 40.0833 734.588 40.78C732.792 41.4767 730.738 41.825 728.428 41.825C725.935 41.825 723.772 41.44 721.938 40.67C720.105 39.9 718.583 38.8367 717.373 37.48C716.163 36.0867 715.265 34.4733 714.678 32.64C714.092 30.77 713.798 28.7533 713.798 26.59ZM721.718 26.59C721.718 27.8 721.847 28.9367 722.103 30C722.36 31.0633 722.745 31.9983 723.258 32.805C723.808 33.575 724.505 34.1983 725.348 34.675C726.192 35.1517 727.218 35.39 728.428 35.39C732.902 35.39 735.138 32.4567 735.138 26.59C735.138 25.3067 735.01 24.1333 734.753 23.07C734.533 21.97 734.148 21.035 733.598 20.265C733.085 19.4583 732.388 18.835 731.508 18.395C730.665 17.955 729.638 17.735 728.428 17.735C726.338 17.735 724.688 18.4317 723.478 19.825C722.305 21.2183 721.718 23.4733 721.718 26.59ZM759.148 28.13L760.358 32.75H760.908L761.953 28.13L766.848 12.125H774.713L765.143 38.25C764.336 40.4133 763.566 42.3567 762.833 44.08C762.136 45.8033 761.366 47.27 760.523 48.48C759.68 49.69 758.726 50.6067 757.663 51.23C756.636 51.89 755.408 52.22 753.978 52.22C753.025 52.22 752.108 52.1283 751.228 51.945C750.385 51.7983 749.651 51.56 749.028 51.23L750.623 45.29C751.173 45.4733 751.741 45.565 752.328 45.565C752.841 45.565 753.336 45.51 753.813 45.4C754.29 45.29 754.73 45.07 755.133 44.74C755.536 44.4467 755.903 44.0067 756.233 43.42C756.6 42.87 756.911 42.1183 757.168 41.165L743.968 12.125H753.263L759.148 28.13ZM802.609 38.36C801.362 39.3133 799.657 40.1383 797.494 40.835C795.367 41.495 793.076 41.825 790.619 41.825C785.669 41.825 782.039 40.4683 779.729 37.755C777.419 35.0417 776.264 31.32 776.264 26.59C776.264 21.5667 777.566 17.7717 780.169 15.205C782.772 12.6017 786.439 11.3 791.169 11.3C792.709 11.3 794.231 11.5017 795.734 11.905C797.237 12.2717 798.576 12.9133 799.749 13.83C800.922 14.71 801.857 15.92 802.554 17.46C803.287 18.9633 803.654 20.8333 803.654 23.07C803.654 23.84 803.599 24.6833 803.489 25.6C803.416 26.5167 803.269 27.47 803.049 28.46H783.799C783.982 30.9533 784.697 32.805 785.944 34.015C787.227 35.1883 789.299 35.775 792.159 35.775C793.882 35.775 795.422 35.5367 796.779 35.06C798.172 34.5467 799.236 34.0333 799.969 33.52L802.609 38.36ZM791.059 17.35C788.786 17.35 787.099 17.9733 785.999 19.22C784.899 20.43 784.257 21.9883 784.074 23.895H796.504C796.651 21.8783 796.284 20.2833 795.404 19.11C794.524 17.9367 793.076 17.35 791.059 17.35ZM834.943 38.36C833.696 39.3133 831.991 40.1383 829.828 40.835C827.701 41.495 825.41 41.825 822.953 41.825C818.003 41.825 814.373 40.4683 812.063 37.755C809.753 35.0417 808.598 31.32 808.598 26.59C808.598 21.5667 809.9 17.7717 812.503 15.205C815.106 12.6017 818.773 11.3 823.503 11.3C825.043 11.3 826.565 11.5017 828.068 11.905C829.571 12.2717 830.91 12.9133 832.083 13.83C833.256 14.71 834.191 15.92 834.888 17.46C835.621 18.9633 835.988 20.8333 835.988 23.07C835.988 23.84 835.933 24.6833 835.823 25.6C835.75 26.5167 835.603 27.47 835.383 28.46H816.133C816.316 30.9533 817.031 32.805 818.278 34.015C819.561 35.1883 821.633 35.775 824.493 35.775C826.216 35.775 827.756 35.5367 829.113 35.06C830.506 34.5467 831.57 34.0333 832.303 33.52L834.943 38.36ZM823.393 17.35C821.12 17.35 819.433 17.9733 818.333 19.22C817.233 20.43 816.591 21.9883 816.408 23.895H828.838C828.985 21.8783 828.618 20.2833 827.738 19.11C826.858 17.9367 825.41 17.35 823.393 17.35ZM29.655 133.36C28.4083 134.313 26.7033 135.138 24.54 135.835C22.4133 136.495 20.1217 136.825 17.665 136.825C12.715 136.825 9.085 135.468 6.775 132.755C4.465 130.042 3.31 126.32 3.31 121.59C3.31 116.567 4.61167 112.772 7.215 110.205C9.81833 107.602 13.485 106.3 18.215 106.3C19.755 106.3 21.2767 106.502 22.78 106.905C24.2833 107.272 25.6217 107.913 26.795 108.83C27.9683 109.71 28.9033 110.92 29.6 112.46C30.3333 113.963 30.7 115.833 30.7 118.07C30.7 118.84 30.645 119.683 30.535 120.6C30.4617 121.517 30.315 122.47 30.095 123.46H10.845C11.0283 125.953 11.7433 127.805 12.99 129.015C14.2733 130.188 16.345 130.775 19.205 130.775C20.9283 130.775 22.4683 130.537 23.825 130.06C25.2183 129.547 26.2817 129.033 27.015 128.52L29.655 133.36ZM18.105 112.35C15.8317 112.35 14.145 112.973 13.045 114.22C11.945 115.43 11.3033 116.988 11.12 118.895H23.55C23.6967 116.878 23.33 115.283 22.45 114.11C21.57 112.937 20.1217 112.35 18.105 112.35ZM57.0863 136V120.16C57.0863 117.667 56.7013 115.87 55.9313 114.77C55.1613 113.67 53.8046 113.12 51.8613 113.12C50.2113 113.12 48.7996 113.578 47.6263 114.495C46.4896 115.375 45.7013 116.512 45.2613 117.905C45.2613 120.912 45.2613 123.937 45.2613 126.98C45.2979 129.987 45.3163 132.993 45.3163 136H37.6163V107.125H43.6663L44.4913 111.25H45.3163C46.2696 109.893 47.5346 108.738 49.1113 107.785C50.6879 106.795 52.7413 106.3 55.2713 106.3C56.8113 106.3 58.1679 106.502 59.3413 106.905C60.5513 107.272 61.5413 107.932 62.3113 108.885C63.1179 109.802 63.7229 111.048 64.1263 112.625C64.5663 114.202 64.7863 116.182 64.7863 118.565V136H57.0863ZM98.8145 134.9C98.8145 139.153 97.6045 142.288 95.1845 144.305C92.7645 146.322 89.3362 147.33 84.8995 147.33C82.0395 147.33 79.7295 147.128 77.9695 146.725C76.2462 146.358 74.9078 145.937 73.9545 145.46C74.4312 143.993 74.7795 142.82 74.9995 141.94C75.2562 141.097 75.4395 140.455 75.5495 140.015C75.6595 139.575 75.7328 139.3 75.7695 139.19C75.8062 139.08 75.8245 139.025 75.8245 139.025C76.7045 139.465 77.7678 139.905 79.0145 140.345C80.2612 140.822 81.7828 141.06 83.5795 141.06C85.0828 141.06 86.3295 140.913 87.3195 140.62C88.3095 140.327 89.0978 139.887 89.6845 139.3C90.2712 138.75 90.6745 138.072 90.8945 137.265C91.1512 136.458 91.2795 135.56 91.2795 134.57V132.425H90.6195C89.8862 133.488 88.8778 134.24 87.5945 134.68C86.3112 135.12 84.7162 135.34 82.8095 135.34C78.8862 135.34 75.9345 134.258 73.9545 132.095C72.0112 129.932 71.0395 126.448 71.0395 121.645C71.0395 116.585 72.3228 112.772 74.8895 110.205C77.4928 107.638 81.3428 106.355 86.4395 106.355C89.1162 106.355 91.4995 106.538 93.5895 106.905C95.7162 107.235 97.4578 107.62 98.8145 108.06V134.9ZM84.6245 129.345C86.3112 129.345 87.6862 129.033 88.7495 128.41C89.8495 127.787 90.6378 127.017 91.1145 126.1V113.67C89.7578 113.083 88.0345 112.79 85.9445 112.79C83.7078 112.79 81.9845 113.45 80.7745 114.77C79.5645 116.09 78.9595 118.272 78.9595 121.315C78.9595 124.102 79.4728 126.137 80.4995 127.42C81.5262 128.703 82.9012 129.345 84.6245 129.345ZM106.467 109.105C108.117 108.372 110.134 107.767 112.517 107.29C114.937 106.813 117.431 106.575 119.997 106.575C122.014 106.575 123.701 106.813 125.057 107.29C126.451 107.767 127.551 108.463 128.357 109.38C129.164 110.26 129.732 111.342 130.062 112.625C130.429 113.872 130.612 115.265 130.612 116.805C130.612 118.675 130.539 120.527 130.392 122.36C130.246 124.193 130.172 126.137 130.172 128.19C130.172 129.583 130.264 130.94 130.447 132.26C130.631 133.58 130.924 134.845 131.327 136.055H125.057L123.792 131.765H123.132C122.179 133.048 120.969 134.148 119.502 135.065C118.036 135.982 116.147 136.44 113.837 136.44C112.444 136.44 111.161 136.238 109.987 135.835C108.851 135.432 107.861 134.863 107.017 134.13C106.211 133.36 105.569 132.462 105.092 131.435C104.652 130.408 104.432 129.29 104.432 128.08C104.432 124.817 105.514 122.36 107.677 120.71C109.877 119.023 113.196 118.18 117.632 118.18C118.659 118.18 119.686 118.272 120.712 118.455C121.739 118.602 122.454 118.712 122.857 118.785C122.967 118.015 123.022 117.355 123.022 116.805C123.022 115.412 122.674 114.385 121.977 113.725C121.281 113.065 119.979 112.735 118.072 112.735C116.312 112.735 114.589 112.955 112.902 113.395C111.252 113.798 109.786 114.312 108.502 114.935L106.467 109.105ZM116.532 130.28C118.256 130.28 119.631 129.877 120.657 129.07C121.684 128.263 122.436 127.42 122.912 126.54V123.24C122.729 123.167 122.436 123.093 122.032 123.02C121.666 122.947 121.244 122.873 120.767 122.8C120.327 122.727 119.869 122.672 119.392 122.635C118.952 122.598 118.549 122.58 118.182 122.58C116.202 122.58 114.736 122.947 113.782 123.68C112.829 124.377 112.352 125.257 112.352 126.32C112.352 127.64 112.719 128.63 113.452 129.29C114.222 129.95 115.249 130.28 116.532 130.28ZM164.718 134.9C164.718 139.153 163.508 142.288 161.088 144.305C158.668 146.322 155.239 147.33 150.803 147.33C147.943 147.33 145.633 147.128 143.873 146.725C142.149 146.358 140.811 145.937 139.858 145.46C140.334 143.993 140.683 142.82 140.903 141.94C141.159 141.097 141.343 140.455 141.453 140.015C141.563 139.575 141.636 139.3 141.673 139.19C141.709 139.08 141.728 139.025 141.728 139.025C142.608 139.465 143.671 139.905 144.918 140.345C146.164 140.822 147.686 141.06 149.483 141.06C150.986 141.06 152.233 140.913 153.223 140.62C154.213 140.327 155.001 139.887 155.588 139.3C156.174 138.75 156.578 138.072 156.798 137.265C157.054 136.458 157.183 135.56 157.183 134.57V132.425H156.523C155.789 133.488 154.781 134.24 153.498 134.68C152.214 135.12 150.619 135.34 148.713 135.34C144.789 135.34 141.838 134.258 139.858 132.095C137.914 129.932 136.943 126.448 136.943 121.645C136.943 116.585 138.226 112.772 140.793 110.205C143.396 107.638 147.246 106.355 152.343 106.355C155.019 106.355 157.403 106.538 159.493 106.905C161.619 107.235 163.361 107.62 164.718 108.06V134.9ZM150.528 129.345C152.214 129.345 153.589 129.033 154.653 128.41C155.753 127.787 156.541 127.017 157.018 126.1V113.67C155.661 113.083 153.938 112.79 151.848 112.79C149.611 112.79 147.888 113.45 146.678 114.77C145.468 116.09 144.863 118.272 144.863 121.315C144.863 124.102 145.376 126.137 146.403 127.42C147.429 128.703 148.804 129.345 150.528 129.345ZM197.341 133.36C196.094 134.313 194.389 135.138 192.226 135.835C190.099 136.495 187.807 136.825 185.351 136.825C180.401 136.825 176.771 135.468 174.461 132.755C172.151 130.042 170.996 126.32 170.996 121.59C170.996 116.567 172.297 112.772 174.901 110.205C177.504 107.602 181.171 106.3 185.901 106.3C187.441 106.3 188.962 106.502 190.466 106.905C191.969 107.272 193.307 107.913 194.481 108.83C195.654 109.71 196.589 110.92 197.286 112.46C198.019 113.963 198.386 115.833 198.386 118.07C198.386 118.84 198.331 119.683 198.221 120.6C198.147 121.517 198.001 122.47 197.781 123.46H178.531C178.714 125.953 179.429 127.805 180.676 129.015C181.959 130.188 184.031 130.775 186.891 130.775C188.614 130.775 190.154 130.537 191.511 130.06C192.904 129.547 193.967 129.033 194.701 128.52L197.341 133.36ZM185.791 112.35C183.517 112.35 181.831 112.973 180.731 114.22C179.631 115.43 178.989 116.988 178.806 118.895H191.236C191.382 116.878 191.016 115.283 190.136 114.11C189.256 112.937 187.807 112.35 185.791 112.35ZM223.342 136V120.93C223.342 118.143 223.048 116.145 222.462 114.935C221.875 113.725 220.665 113.12 218.832 113.12C217.292 113.12 216.063 113.505 215.147 114.275C214.23 115.008 213.515 115.98 213.002 117.19V136H205.302V107.125H211.242L212.122 111.14H212.837C213.313 110.517 213.863 109.912 214.487 109.325C215.11 108.738 215.788 108.225 216.522 107.785C217.292 107.345 218.135 106.997 219.052 106.74C220.005 106.447 221.068 106.3 222.242 106.3C224.185 106.3 225.798 106.74 227.082 107.62C228.402 108.463 229.447 109.893 230.217 111.91C231.28 110.15 232.563 108.775 234.067 107.785C235.607 106.795 237.385 106.3 239.402 106.3C241.162 106.3 242.647 106.502 243.857 106.905C245.103 107.308 246.112 108.005 246.882 108.995C247.652 109.985 248.202 111.323 248.532 113.01C248.898 114.697 249.082 116.805 249.082 119.335V136H241.382V120.545C241.382 119.335 241.327 118.272 241.217 117.355C241.107 116.438 240.887 115.668 240.557 115.045C240.227 114.385 239.75 113.908 239.127 113.615C238.54 113.285 237.752 113.12 236.762 113.12C235.222 113.12 233.975 113.523 233.022 114.33C232.105 115.1 231.445 116.182 231.042 117.575V136H223.342ZM281.72 133.36C280.474 134.313 278.769 135.138 276.605 135.835C274.479 136.495 272.187 136.825 269.73 136.825C264.78 136.825 261.15 135.468 258.84 132.755C256.53 130.042 255.375 126.32 255.375 121.59C255.375 116.567 256.677 112.772 259.28 110.205C261.884 107.602 265.55 106.3 270.28 106.3C271.82 106.3 273.342 106.502 274.845 106.905C276.349 107.272 277.687 107.913 278.86 108.83C280.034 109.71 280.969 110.92 281.665 112.46C282.399 113.963 282.765 115.833 282.765 118.07C282.765 118.84 282.71 119.683 282.6 120.6C282.527 121.517 282.38 122.47 282.16 123.46H262.91C263.094 125.953 263.809 127.805 265.055 129.015C266.339 130.188 268.41 130.775 271.27 130.775C272.994 130.775 274.534 130.537 275.89 130.06C277.284 129.547 278.347 129.033 279.08 128.52L281.72 133.36ZM270.17 112.35C267.897 112.35 266.21 112.973 265.11 114.22C264.01 115.43 263.369 116.988 263.185 118.895H275.615C275.762 116.878 275.395 115.283 274.515 114.11C273.635 112.937 272.187 112.35 270.17 112.35ZM309.152 136V120.16C309.152 117.667 308.767 115.87 307.997 114.77C307.227 113.67 305.87 113.12 303.927 113.12C302.277 113.12 300.865 113.578 299.692 114.495C298.555 115.375 297.767 116.512 297.327 117.905C297.327 120.912 297.327 123.937 297.327 126.98C297.363 129.987 297.382 132.993 297.382 136H289.682V107.125H295.732L296.557 111.25H297.382C298.335 109.893 299.6 108.738 301.177 107.785C302.753 106.795 304.807 106.3 307.337 106.3C308.877 106.3 310.233 106.502 311.407 106.905C312.617 107.272 313.607 107.932 314.377 108.885C315.183 109.802 315.788 111.048 316.192 112.625C316.632 114.202 316.852 116.182 316.852 118.565V136H309.152ZM321.235 107.125H325.635V103.165L333.335 101.13V107.125H341.09V113.56H333.335V123.57C333.335 125.88 333.555 127.548 333.995 128.575C334.472 129.565 335.388 130.06 336.745 130.06C337.588 130.06 338.303 130.005 338.89 129.895C339.477 129.748 340.1 129.528 340.76 129.235L342.355 135.01C341.182 135.523 339.825 135.963 338.285 136.33C336.782 136.697 335.315 136.88 333.885 136.88C331.025 136.88 328.935 136.183 327.615 134.79C326.295 133.36 325.635 131.087 325.635 127.97V113.56H321.235V107.125ZM361.916 109.105C363.566 108.372 365.583 107.767 367.966 107.29C370.386 106.813 372.88 106.575 375.446 106.575C377.463 106.575 379.15 106.813 380.506 107.29C381.9 107.767 383 108.463 383.806 109.38C384.613 110.26 385.181 111.342 385.511 112.625C385.878 113.872 386.061 115.265 386.061 116.805C386.061 118.675 385.988 120.527 385.841 122.36C385.695 124.193 385.621 126.137 385.621 128.19C385.621 129.583 385.713 130.94 385.896 132.26C386.08 133.58 386.373 134.845 386.776 136.055H380.506L379.241 131.765H378.581C377.628 133.048 376.418 134.148 374.951 135.065C373.485 135.982 371.596 136.44 369.286 136.44C367.893 136.44 366.61 136.238 365.436 135.835C364.3 135.432 363.31 134.863 362.466 134.13C361.66 133.36 361.018 132.462 360.541 131.435C360.101 130.408 359.881 129.29 359.881 128.08C359.881 124.817 360.963 122.36 363.126 120.71C365.326 119.023 368.645 118.18 373.081 118.18C374.108 118.18 375.135 118.272 376.161 118.455C377.188 118.602 377.903 118.712 378.306 118.785C378.416 118.015 378.471 117.355 378.471 116.805C378.471 115.412 378.123 114.385 377.426 113.725C376.73 113.065 375.428 112.735 373.521 112.735C371.761 112.735 370.038 112.955 368.351 113.395C366.701 113.798 365.235 114.312 363.951 114.935L361.916 109.105ZM371.981 130.28C373.705 130.28 375.08 129.877 376.106 129.07C377.133 128.263 377.885 127.42 378.361 126.54V123.24C378.178 123.167 377.885 123.093 377.481 123.02C377.115 122.947 376.693 122.873 376.216 122.8C375.776 122.727 375.318 122.672 374.841 122.635C374.401 122.598 373.998 122.58 373.631 122.58C371.651 122.58 370.185 122.947 369.231 123.68C368.278 124.377 367.801 125.257 367.801 126.32C367.801 127.64 368.168 128.63 368.901 129.29C369.671 129.95 370.698 130.28 371.981 130.28ZM413.512 136V120.16C413.512 117.667 413.127 115.87 412.357 114.77C411.587 113.67 410.23 113.12 408.287 113.12C406.637 113.12 405.225 113.578 404.052 114.495C402.915 115.375 402.127 116.512 401.687 117.905C401.687 120.912 401.687 123.937 401.687 126.98C401.724 129.987 401.742 132.993 401.742 136H394.042V107.125H400.092L400.917 111.25H401.742C402.695 109.893 403.96 108.738 405.537 107.785C407.114 106.795 409.167 106.3 411.697 106.3C413.237 106.3 414.594 106.502 415.767 106.905C416.977 107.272 417.967 107.932 418.737 108.885C419.544 109.802 420.149 111.048 420.552 112.625C420.992 114.202 421.212 116.182 421.212 118.565V136H413.512ZM455.405 125.88C455.405 127.42 455.424 129.015 455.46 130.665C455.497 132.315 455.662 134.112 455.955 136.055H450.62L449.52 132.04H448.805C447.962 133.507 446.752 134.68 445.175 135.56C443.635 136.403 441.784 136.825 439.62 136.825C435.77 136.825 432.782 135.633 430.655 133.25C428.529 130.83 427.465 127.108 427.465 122.085C427.465 119.665 427.759 117.483 428.345 115.54C428.969 113.597 429.867 111.947 431.04 110.59C432.25 109.233 433.735 108.188 435.495 107.455C437.255 106.722 439.29 106.355 441.6 106.355C442.884 106.355 443.984 106.465 444.9 106.685C445.854 106.868 446.789 107.107 447.705 107.4V97.5H455.405V125.88ZM441.6 130.39C443.324 130.39 444.662 130.005 445.615 129.235C446.569 128.428 447.265 127.292 447.705 125.825V114.275C447.045 113.762 446.33 113.395 445.56 113.175C444.827 112.918 443.855 112.79 442.645 112.79C440.189 112.79 438.355 113.505 437.145 114.935C435.972 116.365 435.385 118.822 435.385 122.305C435.385 124.725 435.88 126.687 436.87 128.19C437.897 129.657 439.474 130.39 441.6 130.39ZM478.467 97.5H503.272V104.65H486.607V113.615H501.952V120.765H486.607V136H478.467V97.5ZM510.08 107.125H517.78V136H510.08V107.125ZM508.925 99.92C508.925 98.7467 509.346 97.775 510.19 97.005C511.033 96.1983 512.225 95.795 513.765 95.795C515.341 95.795 516.588 96.1983 517.505 97.005C518.421 97.8117 518.88 98.7833 518.88 99.92C518.88 100.983 518.421 101.9 517.505 102.67C516.588 103.44 515.341 103.825 513.765 103.825C512.225 103.825 511.033 103.44 510.19 102.67C509.346 101.9 508.925 100.983 508.925 99.92ZM546.071 136V120.16C546.071 117.667 545.686 115.87 544.916 114.77C544.146 113.67 542.789 113.12 540.846 113.12C539.196 113.12 537.784 113.578 536.611 114.495C535.474 115.375 534.686 116.512 534.246 117.905C534.246 120.912 534.246 123.937 534.246 126.98C534.282 129.987 534.301 132.993 534.301 136H526.601V107.125H532.651L533.476 111.25H534.301C535.254 109.893 536.519 108.738 538.096 107.785C539.672 106.795 541.726 106.3 544.256 106.3C545.796 106.3 547.152 106.502 548.326 106.905C549.536 107.272 550.526 107.932 551.296 108.885C552.102 109.802 552.707 111.048 553.111 112.625C553.551 114.202 553.771 116.182 553.771 118.565V136H546.071ZM561.399 109.105C563.049 108.372 565.066 107.767 567.449 107.29C569.869 106.813 572.362 106.575 574.929 106.575C576.946 106.575 578.632 106.813 579.989 107.29C581.382 107.767 582.482 108.463 583.289 109.38C584.096 110.26 584.664 111.342 584.994 112.625C585.361 113.872 585.544 115.265 585.544 116.805C585.544 118.675 585.471 120.527 585.324 122.36C585.177 124.193 585.104 126.137 585.104 128.19C585.104 129.583 585.196 130.94 585.379 132.26C585.562 133.58 585.856 134.845 586.259 136.055H579.989L578.724 131.765H578.064C577.111 133.048 575.901 134.148 574.434 135.065C572.967 135.982 571.079 136.44 568.769 136.44C567.376 136.44 566.092 136.238 564.919 135.835C563.782 135.432 562.792 134.863 561.949 134.13C561.142 133.36 560.501 132.462 560.024 131.435C559.584 130.408 559.364 129.29 559.364 128.08C559.364 124.817 560.446 122.36 562.609 120.71C564.809 119.023 568.127 118.18 572.564 118.18C573.591 118.18 574.617 118.272 575.644 118.455C576.671 118.602 577.386 118.712 577.789 118.785C577.899 118.015 577.954 117.355 577.954 116.805C577.954 115.412 577.606 114.385 576.909 113.725C576.212 113.065 574.911 112.735 573.004 112.735C571.244 112.735 569.521 112.955 567.834 113.395C566.184 113.798 564.717 114.312 563.434 114.935L561.399 109.105ZM571.464 130.28C573.187 130.28 574.562 129.877 575.589 129.07C576.616 128.263 577.367 127.42 577.844 126.54V123.24C577.661 123.167 577.367 123.093 576.964 123.02C576.597 122.947 576.176 122.873 575.699 122.8C575.259 122.727 574.801 122.672 574.324 122.635C573.884 122.598 573.481 122.58 573.114 122.58C571.134 122.58 569.667 122.947 568.714 123.68C567.761 124.377 567.284 125.257 567.284 126.32C567.284 127.64 567.651 128.63 568.384 129.29C569.154 129.95 570.181 130.28 571.464 130.28ZM612.994 136V120.16C612.994 117.667 612.609 115.87 611.839 114.77C611.069 113.67 609.713 113.12 607.769 113.12C606.119 113.12 604.708 113.578 603.534 114.495C602.398 115.375 601.609 116.512 601.169 117.905C601.169 120.912 601.169 123.937 601.169 126.98C601.206 129.987 601.224 132.993 601.224 136H593.524V107.125H599.574L600.399 111.25H601.224C602.178 109.893 603.443 108.738 605.019 107.785C606.596 106.795 608.649 106.3 611.179 106.3C612.719 106.3 614.076 106.502 615.249 106.905C616.459 107.272 617.449 107.932 618.219 108.885C619.026 109.802 619.631 111.048 620.034 112.625C620.474 114.202 620.694 116.182 620.694 118.565V136H612.994ZM650.378 134.24C649.131 135.083 647.628 135.725 645.868 136.165C644.144 136.605 642.348 136.825 640.478 136.825C637.984 136.825 635.876 136.458 634.153 135.725C632.466 134.992 631.073 133.947 629.973 132.59C628.909 131.233 628.139 129.638 627.663 127.805C627.186 125.935 626.948 123.863 626.948 121.59C626.948 116.787 628.121 113.047 630.468 110.37C632.851 107.657 636.298 106.3 640.808 106.3C643.008 106.3 644.804 106.483 646.198 106.85C647.628 107.18 648.893 107.62 649.993 108.17L648.123 114.33C647.169 113.927 646.216 113.633 645.263 113.45C644.346 113.23 643.264 113.12 642.018 113.12C639.708 113.12 637.929 113.798 636.683 115.155C635.473 116.475 634.868 118.62 634.868 121.59C634.868 122.763 635.014 123.863 635.308 124.89C635.601 125.88 636.059 126.76 636.683 127.53C637.306 128.3 638.094 128.905 639.048 129.345C640.001 129.785 641.119 130.005 642.403 130.005C643.943 130.005 645.153 129.877 646.033 129.62C646.949 129.327 647.811 128.942 648.618 128.465L650.378 134.24ZM657.033 107.125H664.733V136H657.033V107.125ZM655.878 99.92C655.878 98.7467 656.299 97.775 657.143 97.005C657.986 96.1983 659.178 95.795 660.718 95.795C662.294 95.795 663.541 96.1983 664.458 97.005C665.374 97.8117 665.833 98.7833 665.833 99.92C665.833 100.983 665.374 101.9 664.458 102.67C663.541 103.44 662.294 103.825 660.718 103.825C659.178 103.825 657.986 103.44 657.143 102.67C656.299 101.9 655.878 100.983 655.878 99.92ZM673.279 109.105C674.929 108.372 676.945 107.767 679.329 107.29C681.749 106.813 684.242 106.575 686.809 106.575C688.825 106.575 690.512 106.813 691.869 107.29C693.262 107.767 694.362 108.463 695.169 109.38C695.975 110.26 696.544 111.342 696.874 112.625C697.24 113.872 697.424 115.265 697.424 116.805C697.424 118.675 697.35 120.527 697.204 122.36C697.057 124.193 696.984 126.137 696.984 128.19C696.984 129.583 697.075 130.94 697.259 132.26C697.442 133.58 697.735 134.845 698.139 136.055H691.869L690.604 131.765H689.944C688.99 133.048 687.78 134.148 686.314 135.065C684.847 135.982 682.959 136.44 680.649 136.44C679.255 136.44 677.972 136.238 676.799 135.835C675.662 135.432 674.672 134.863 673.829 134.13C673.022 133.36 672.38 132.462 671.904 131.435C671.464 130.408 671.244 129.29 671.244 128.08C671.244 124.817 672.325 122.36 674.489 120.71C676.689 119.023 680.007 118.18 684.444 118.18C685.47 118.18 686.497 118.272 687.524 118.455C688.55 118.602 689.265 118.712 689.669 118.785C689.779 118.015 689.834 117.355 689.834 116.805C689.834 115.412 689.485 114.385 688.789 113.725C688.092 113.065 686.79 112.735 684.884 112.735C683.124 112.735 681.4 112.955 679.714 113.395C678.064 113.798 676.597 114.312 675.314 114.935L673.279 109.105ZM683.344 130.28C685.067 130.28 686.442 129.877 687.469 129.07C688.495 128.263 689.247 127.42 689.724 126.54V123.24C689.54 123.167 689.247 123.093 688.844 123.02C688.477 122.947 688.055 122.873 687.579 122.8C687.139 122.727 686.68 122.672 686.204 122.635C685.764 122.598 685.36 122.58 684.994 122.58C683.014 122.58 681.547 122.947 680.594 123.68C679.64 124.377 679.164 125.257 679.164 126.32C679.164 127.64 679.53 128.63 680.264 129.29C681.034 129.95 682.06 130.28 683.344 130.28ZM713.269 125.88C713.269 128.667 714.168 130.06 715.964 130.06C716.478 130.06 716.954 130.023 717.394 129.95C717.871 129.84 718.421 129.675 719.044 129.455L719.979 135.45C719.246 135.78 718.201 136.092 716.844 136.385C715.524 136.715 714.149 136.88 712.719 136.88C710.409 136.88 708.631 136.367 707.384 135.34C706.174 134.313 705.569 132.627 705.569 130.28V97.5H713.269V125.88ZM27.235 202.125C28.225 204.545 29.1967 206.983 30.15 209.44C31.1033 211.897 32.075 214.335 33.065 216.755L34.165 221.595H34.99L35.815 216.7C36.475 214.243 37.1533 211.823 37.85 209.44C38.5467 207.02 39.225 204.582 39.885 202.125H46.925L37.08 231.275H31.525C30.535 228.745 29.4717 226.105 28.335 223.355C27.1983 220.568 26.135 217.91 25.145 215.38L24.375 211.64H23.385C23.275 212.263 23.1467 212.905 23 213.565C22.8533 214.188 22.725 214.812 22.615 215.435L16.62 231.275H10.79L0.67 202.125H9.03L13.65 216.37L14.42 221.705H15.245L16.345 216.315L21.57 202.125H27.235ZM74.5573 228.36C73.3107 229.313 71.6057 230.138 69.4423 230.835C67.3157 231.495 65.024 231.825 62.5673 231.825C57.6173 231.825 53.9873 230.468 51.6773 227.755C49.3673 225.042 48.2123 221.32 48.2123 216.59C48.2123 211.567 49.514 207.772 52.1173 205.205C54.7207 202.602 58.3873 201.3 63.1173 201.3C64.6573 201.3 66.179 201.502 67.6823 201.905C69.1857 202.272 70.524 202.913 71.6973 203.83C72.8707 204.71 73.8057 205.92 74.5023 207.46C75.2357 208.963 75.6023 210.833 75.6023 213.07C75.6023 213.84 75.5473 214.683 75.4373 215.6C75.364 216.517 75.2173 217.47 74.9973 218.46H55.7473C55.9307 220.953 56.6457 222.805 57.8923 224.015C59.1757 225.188 61.2473 225.775 64.1073 225.775C65.8307 225.775 67.3707 225.537 68.7273 225.06C70.1207 224.547 71.184 224.033 71.9173 223.52L74.5573 228.36ZM63.0073 207.35C60.734 207.35 59.0473 207.973 57.9473 209.22C56.8473 210.43 56.2057 211.988 56.0223 213.895H68.4523C68.599 211.878 68.2323 210.283 67.3523 209.11C66.4723 207.937 65.024 207.35 63.0073 207.35ZM90.3836 220.88C90.3836 223.667 91.2819 225.06 93.0786 225.06C93.5919 225.06 94.0686 225.023 94.5086 224.95C94.9853 224.84 95.5353 224.675 96.1586 224.455L97.0936 230.45C96.3603 230.78 95.3153 231.092 93.9586 231.385C92.6386 231.715 91.2636 231.88 89.8336 231.88C87.5236 231.88 85.7453 231.367 84.4986 230.34C83.2886 229.313 82.6836 227.627 82.6836 225.28V192.5H90.3836V220.88ZM108.914 220.88C108.914 223.667 109.812 225.06 111.609 225.06C112.122 225.06 112.599 225.023 113.039 224.95C113.516 224.84 114.066 224.675 114.689 224.455L115.624 230.45C114.891 230.78 113.846 231.092 112.489 231.385C111.169 231.715 109.794 231.88 108.364 231.88C106.054 231.88 104.276 231.367 103.029 230.34C101.819 229.313 101.214 227.627 101.214 225.28V192.5H108.914V220.88ZM139.049 231V215.16C139.049 212.667 138.664 210.87 137.894 209.77C137.124 208.67 135.767 208.12 133.824 208.12C132.174 208.12 130.762 208.578 129.589 209.495C128.452 210.375 127.664 211.512 127.224 212.905C127.224 215.912 127.224 218.937 127.224 221.98C127.261 224.987 127.279 227.993 127.279 231H119.579V202.125H125.629L126.454 206.25H127.279C128.232 204.893 129.497 203.738 131.074 202.785C132.651 201.795 134.704 201.3 137.234 201.3C138.774 201.3 140.131 201.502 141.304 201.905C142.514 202.272 143.504 202.932 144.274 203.885C145.081 204.802 145.686 206.048 146.089 207.625C146.529 209.202 146.749 211.182 146.749 213.565V231H139.049ZM179.347 228.36C178.101 229.313 176.396 230.138 174.232 230.835C172.106 231.495 169.814 231.825 167.357 231.825C162.407 231.825 158.777 230.468 156.467 227.755C154.157 225.042 153.002 221.32 153.002 216.59C153.002 211.567 154.304 207.772 156.907 205.205C159.511 202.602 163.177 201.3 167.907 201.3C169.447 201.3 170.969 201.502 172.472 201.905C173.976 202.272 175.314 202.913 176.487 203.83C177.661 204.71 178.596 205.92 179.292 207.46C180.026 208.963 180.392 210.833 180.392 213.07C180.392 213.84 180.337 214.683 180.227 215.6C180.154 216.517 180.007 217.47 179.787 218.46H160.537C160.721 220.953 161.436 222.805 162.682 224.015C163.966 225.188 166.037 225.775 168.897 225.775C170.621 225.775 172.161 225.537 173.517 225.06C174.911 224.547 175.974 224.033 176.707 223.52L179.347 228.36ZM167.797 207.35C165.524 207.35 163.837 207.973 162.737 209.22C161.637 210.43 160.996 211.988 160.812 213.895H173.242C173.389 211.878 173.022 210.283 172.142 209.11C171.262 207.937 169.814 207.35 167.797 207.35ZM187.254 223.52C187.767 223.777 188.354 224.033 189.014 224.29C189.71 224.547 190.444 224.785 191.214 225.005C192.02 225.225 192.827 225.408 193.634 225.555C194.477 225.702 195.32 225.775 196.164 225.775C197.447 225.775 198.437 225.573 199.134 225.17C199.867 224.767 200.234 224.015 200.234 222.915C200.234 222.035 199.757 221.393 198.804 220.99C197.85 220.55 196.677 220.128 195.284 219.725C194.257 219.432 193.175 219.083 192.039 218.68C190.939 218.277 189.912 217.745 188.959 217.085C188.042 216.388 187.272 215.49 186.649 214.39C186.062 213.29 185.769 211.897 185.769 210.21C185.769 207.313 186.667 205.113 188.464 203.61C190.26 202.07 192.845 201.3 196.219 201.3C198.419 201.3 200.472 201.502 202.379 201.905C204.322 202.272 205.88 202.712 207.054 203.225L205.459 209.055C204.505 208.688 203.277 208.322 201.774 207.955C200.307 207.552 198.804 207.35 197.264 207.35C195.98 207.35 195.027 207.552 194.404 207.955C193.78 208.322 193.469 208.982 193.469 209.935C193.469 210.778 193.945 211.42 194.899 211.86C195.889 212.263 197.08 212.667 198.474 213.07C199.5 213.363 200.564 213.712 201.664 214.115C202.8 214.482 203.827 214.995 204.744 215.655C205.66 216.315 206.412 217.177 206.999 218.24C207.622 219.267 207.934 220.568 207.934 222.145C207.934 225.225 206.925 227.608 204.909 229.295C202.929 230.982 199.94 231.825 195.944 231.825C193.78 231.825 191.764 231.623 189.894 231.22C188.024 230.853 186.502 230.303 185.329 229.57L187.254 223.52ZM213.841 223.52C214.354 223.777 214.941 224.033 215.601 224.29C216.297 224.547 217.031 224.785 217.801 225.005C218.607 225.225 219.414 225.408 220.221 225.555C221.064 225.702 221.907 225.775 222.751 225.775C224.034 225.775 225.024 225.573 225.721 225.17C226.454 224.767 226.821 224.015 226.821 222.915C226.821 222.035 226.344 221.393 225.391 220.99C224.437 220.55 223.264 220.128 221.871 219.725C220.844 219.432 219.762 219.083 218.626 218.68C217.526 218.277 216.499 217.745 215.546 217.085C214.629 216.388 213.859 215.49 213.236 214.39C212.649 213.29 212.356 211.897 212.356 210.21C212.356 207.313 213.254 205.113 215.051 203.61C216.847 202.07 219.432 201.3 222.806 201.3C225.006 201.3 227.059 201.502 228.966 201.905C230.909 202.272 232.467 202.712 233.641 203.225L232.046 209.055C231.092 208.688 229.864 208.322 228.361 207.955C226.894 207.552 225.391 207.35 223.851 207.35C222.567 207.35 221.614 207.552 220.991 207.955C220.367 208.322 220.056 208.982 220.056 209.935C220.056 210.778 220.532 211.42 221.486 211.86C222.476 212.263 223.667 212.667 225.061 213.07C226.087 213.363 227.151 213.712 228.251 214.115C229.387 214.482 230.414 214.995 231.331 215.655C232.247 216.315 232.999 217.177 233.586 218.24C234.209 219.267 234.521 220.568 234.521 222.145C234.521 225.225 233.512 227.608 231.496 229.295C229.516 230.982 226.527 231.825 222.531 231.825C220.367 231.825 218.351 231.623 216.481 231.22C214.611 230.853 213.089 230.303 211.916 229.57L213.841 223.52ZM277.152 202.125C278.142 204.545 279.114 206.983 280.067 209.44C281.02 211.897 281.992 214.335 282.982 216.755L284.082 221.595H284.907L285.732 216.7C286.392 214.243 287.07 211.823 287.767 209.44C288.464 207.02 289.142 204.582 289.802 202.125H296.842L286.997 231.275H281.442C280.452 228.745 279.389 226.105 278.252 223.355C277.115 220.568 276.052 217.91 275.062 215.38L274.292 211.64H273.302C273.192 212.263 273.064 212.905 272.917 213.565C272.77 214.188 272.642 214.812 272.532 215.435L266.537 231.275H260.707L250.587 202.125H258.947L263.567 216.37L264.337 221.705H265.162L266.262 216.315L271.487 202.125H277.152ZM301.198 202.125H308.898V231H301.198V202.125ZM300.043 194.92C300.043 193.747 300.464 192.775 301.308 192.005C302.151 191.198 303.343 190.795 304.883 190.795C306.459 190.795 307.706 191.198 308.623 192.005C309.539 192.812 309.998 193.783 309.998 194.92C309.998 195.983 309.539 196.9 308.623 197.67C307.706 198.44 306.459 198.825 304.883 198.825C303.343 198.825 302.151 198.44 301.308 197.67C300.464 196.9 300.043 195.983 300.043 194.92ZM314.199 202.125H318.599V198.165L326.299 196.13V202.125H334.054V208.56H326.299V218.57C326.299 220.88 326.519 222.548 326.959 223.575C327.435 224.565 328.352 225.06 329.709 225.06C330.552 225.06 331.267 225.005 331.854 224.895C332.44 224.748 333.064 224.528 333.724 224.235L335.319 230.01C334.145 230.523 332.789 230.963 331.249 231.33C329.745 231.697 328.279 231.88 326.849 231.88C323.989 231.88 321.899 231.183 320.579 229.79C319.259 228.36 318.599 226.087 318.599 222.97V208.56H314.199V202.125ZM359.425 231V215.105C359.425 212.612 359.04 210.833 358.27 209.77C357.537 208.67 356.162 208.12 354.145 208.12C352.678 208.12 351.322 208.597 350.075 209.55C348.865 210.467 348.058 211.695 347.655 213.235V231H339.955V192.5H347.655V205.645H348.315C349.305 204.362 350.533 203.317 352 202.51C353.503 201.703 355.392 201.3 357.665 201.3C359.242 201.3 360.617 201.502 361.79 201.905C362.963 202.272 363.935 202.932 364.705 203.885C365.512 204.802 366.117 206.048 366.52 207.625C366.923 209.165 367.125 211.09 367.125 213.4V231H359.425Z" fill="#513164"/>
<path d="M389.844 192.885C390.724 192.738 391.677 192.61 392.704 192.5C393.767 192.353 394.83 192.243 395.894 192.17C396.957 192.097 397.984 192.042 398.974 192.005C400 191.968 400.935 191.95 401.779 191.95C403.722 191.95 405.629 192.115 407.499 192.445C409.405 192.775 411.092 193.343 412.559 194.15C414.062 194.957 415.272 196.075 416.189 197.505C417.105 198.898 417.564 200.658 417.564 202.785C417.564 205.938 416.775 208.542 415.199 210.595C413.659 212.612 411.514 213.987 408.764 214.72L411.679 216.425L421.304 231H411.844L402.274 216.095L397.984 215.435V231H389.844V192.885ZM402.329 199.1C401.485 199.1 400.66 199.118 399.854 199.155C399.084 199.155 398.46 199.21 397.984 199.32V209.935H401.449C403.759 209.935 405.574 209.495 406.894 208.615C408.25 207.735 408.929 206.213 408.929 204.05C408.929 202.437 408.36 201.208 407.224 200.365C406.087 199.522 404.455 199.1 402.329 199.1ZM447.956 228.36C446.709 229.313 445.004 230.138 442.841 230.835C440.714 231.495 438.422 231.825 435.966 231.825C431.016 231.825 427.386 230.468 425.076 227.755C422.766 225.042 421.611 221.32 421.611 216.59C421.611 211.567 422.912 207.772 425.516 205.205C428.119 202.602 431.786 201.3 436.516 201.3C438.056 201.3 439.577 201.502 441.081 201.905C442.584 202.272 443.922 202.913 445.096 203.83C446.269 204.71 447.204 205.92 447.901 207.46C448.634 208.963 449.001 210.833 449.001 213.07C449.001 213.84 448.946 214.683 448.836 215.6C448.762 216.517 448.616 217.47 448.396 218.46H429.146C429.329 220.953 430.044 222.805 431.291 224.015C432.574 225.188 434.646 225.775 437.506 225.775C439.229 225.775 440.769 225.537 442.126 225.06C443.519 224.547 444.582 224.033 445.316 223.52L447.956 228.36ZM436.406 207.35C434.132 207.35 432.446 207.973 431.346 209.22C430.246 210.43 429.604 211.988 429.421 213.895H441.851C441.997 211.878 441.631 210.283 440.751 209.11C439.871 207.937 438.422 207.35 436.406 207.35ZM477.87 202.125C478.86 204.545 479.831 206.983 480.785 209.44C481.738 211.897 482.71 214.335 483.7 216.755L484.8 221.595H485.625L486.45 216.7C487.11 214.243 487.788 211.823 488.485 209.44C489.181 207.02 489.86 204.582 490.52 202.125H497.56L487.715 231.275H482.16C481.17 228.745 480.106 226.105 478.97 223.355C477.833 220.568 476.77 217.91 475.78 215.38L475.01 211.64H474.02C473.91 212.263 473.781 212.905 473.635 213.565C473.488 214.188 473.36 214.812 473.25 215.435L467.255 231.275H461.425L451.305 202.125H459.665L464.285 216.37L465.055 221.705H465.88L466.98 216.315L472.205 202.125H477.87ZM500.706 204.105C502.356 203.372 504.372 202.767 506.756 202.29C509.176 201.813 511.669 201.575 514.236 201.575C516.252 201.575 517.939 201.813 519.296 202.29C520.689 202.767 521.789 203.463 522.596 204.38C523.402 205.26 523.971 206.342 524.301 207.625C524.667 208.872 524.851 210.265 524.851 211.805C524.851 213.675 524.777 215.527 524.631 217.36C524.484 219.193 524.411 221.137 524.411 223.19C524.411 224.583 524.502 225.94 524.686 227.26C524.869 228.58 525.162 229.845 525.566 231.055H519.296L518.031 226.765H517.371C516.417 228.048 515.207 229.148 513.741 230.065C512.274 230.982 510.386 231.44 508.076 231.44C506.682 231.44 505.399 231.238 504.226 230.835C503.089 230.432 502.099 229.863 501.256 229.13C500.449 228.36 499.807 227.462 499.331 226.435C498.891 225.408 498.671 224.29 498.671 223.08C498.671 219.817 499.752 217.36 501.916 215.71C504.116 214.023 507.434 213.18 511.871 213.18C512.897 213.18 513.924 213.272 514.951 213.455C515.977 213.602 516.692 213.712 517.096 213.785C517.206 213.015 517.261 212.355 517.261 211.805C517.261 210.412 516.912 209.385 516.216 208.725C515.519 208.065 514.217 207.735 512.311 207.735C510.551 207.735 508.827 207.955 507.141 208.395C505.491 208.798 504.024 209.312 502.741 209.935L500.706 204.105ZM510.771 225.28C512.494 225.28 513.869 224.877 514.896 224.07C515.922 223.263 516.674 222.42 517.151 221.54V218.24C516.967 218.167 516.674 218.093 516.271 218.02C515.904 217.947 515.482 217.873 515.006 217.8C514.566 217.727 514.107 217.672 513.631 217.635C513.191 217.598 512.787 217.58 512.421 217.58C510.441 217.58 508.974 217.947 508.021 218.68C507.067 219.377 506.591 220.257 506.591 221.32C506.591 222.64 506.957 223.63 507.691 224.29C508.461 224.95 509.487 225.28 510.771 225.28ZM549.881 209.165C548.781 208.798 547.681 208.615 546.581 208.615C544.968 208.615 543.629 209 542.566 209.77C541.539 210.54 540.861 211.512 540.531 212.685V231H532.831V202.125H538.881L539.706 206.14H540.421C541.154 204.637 542.126 203.482 543.336 202.675C544.583 201.868 545.994 201.465 547.571 201.465C548.561 201.465 549.698 201.667 550.981 202.07L549.881 209.165ZM581.465 220.88C581.465 222.42 581.483 224.015 581.52 225.665C581.557 227.315 581.722 229.112 582.015 231.055H576.68L575.58 227.04H574.865C574.022 228.507 572.812 229.68 571.235 230.56C569.695 231.403 567.843 231.825 565.68 231.825C561.83 231.825 558.842 230.633 556.715 228.25C554.588 225.83 553.525 222.108 553.525 217.085C553.525 214.665 553.818 212.483 554.405 210.54C555.028 208.597 555.927 206.947 557.1 205.59C558.31 204.233 559.795 203.188 561.555 202.455C563.315 201.722 565.35 201.355 567.66 201.355C568.943 201.355 570.043 201.465 570.96 201.685C571.913 201.868 572.848 202.107 573.765 202.4V192.5H581.465V220.88ZM567.66 225.39C569.383 225.39 570.722 225.005 571.675 224.235C572.628 223.428 573.325 222.292 573.765 220.825V209.275C573.105 208.762 572.39 208.395 571.62 208.175C570.887 207.918 569.915 207.79 568.705 207.79C566.248 207.79 564.415 208.505 563.205 209.935C562.032 211.365 561.445 213.822 561.445 217.305C561.445 219.725 561.94 221.687 562.93 223.19C563.957 224.657 565.533 225.39 567.66 225.39ZM589.656 223.52C590.169 223.777 590.756 224.033 591.416 224.29C592.113 224.547 592.846 224.785 593.616 225.005C594.423 225.225 595.229 225.408 596.036 225.555C596.879 225.702 597.723 225.775 598.566 225.775C599.849 225.775 600.839 225.573 601.536 225.17C602.269 224.767 602.636 224.015 602.636 222.915C602.636 222.035 602.159 221.393 601.206 220.99C600.253 220.55 599.079 220.128 597.686 219.725C596.659 219.432 595.578 219.083 594.441 218.68C593.341 218.277 592.314 217.745 591.361 217.085C590.444 216.388 589.674 215.49 589.051 214.39C588.464 213.29 588.171 211.897 588.171 210.21C588.171 207.313 589.069 205.113 590.866 203.61C592.663 202.07 595.248 201.3 598.621 201.3C600.821 201.3 602.874 201.502 604.781 201.905C606.724 202.272 608.283 202.712 609.456 203.225L607.861 209.055C606.908 208.688 605.679 208.322 604.176 207.955C602.709 207.552 601.206 207.35 599.666 207.35C598.383 207.35 597.429 207.552 596.806 207.955C596.183 208.322 595.871 208.982 595.871 209.935C595.871 210.778 596.348 211.42 597.301 211.86C598.291 212.263 599.483 212.667 600.876 213.07C601.903 213.363 602.966 213.712 604.066 214.115C605.203 214.482 606.229 214.995 607.146 215.655C608.063 216.315 608.814 217.177 609.401 218.24C610.024 219.267 610.336 220.568 610.336 222.145C610.336 225.225 609.328 227.608 607.311 229.295C605.331 230.982 602.343 231.825 598.346 231.825C596.183 231.825 594.166 231.623 592.296 231.22C590.426 230.853 588.904 230.303 587.731 229.57L589.656 223.52ZM631.223 204.105C632.873 203.372 634.89 202.767 637.273 202.29C639.693 201.813 642.186 201.575 644.753 201.575C646.77 201.575 648.456 201.813 649.813 202.29C651.206 202.767 652.306 203.463 653.113 204.38C653.92 205.26 654.488 206.342 654.818 207.625C655.185 208.872 655.368 210.265 655.368 211.805C655.368 213.675 655.295 215.527 655.148 217.36C655.001 219.193 654.928 221.137 654.928 223.19C654.928 224.583 655.02 225.94 655.203 227.26C655.386 228.58 655.68 229.845 656.083 231.055H649.813L648.548 226.765H647.888C646.935 228.048 645.725 229.148 644.258 230.065C642.791 230.982 640.903 231.44 638.593 231.44C637.2 231.44 635.916 231.238 634.743 230.835C633.606 230.432 632.616 229.863 631.773 229.13C630.966 228.36 630.325 227.462 629.848 226.435C629.408 225.408 629.188 224.29 629.188 223.08C629.188 219.817 630.27 217.36 632.433 215.71C634.633 214.023 637.951 213.18 642.388 213.18C643.415 213.18 644.441 213.272 645.468 213.455C646.495 213.602 647.21 213.712 647.613 213.785C647.723 213.015 647.778 212.355 647.778 211.805C647.778 210.412 647.43 209.385 646.733 208.725C646.036 208.065 644.735 207.735 642.828 207.735C641.068 207.735 639.345 207.955 637.658 208.395C636.008 208.798 634.541 209.312 633.258 209.935L631.223 204.105ZM641.288 225.28C643.011 225.28 644.386 224.877 645.413 224.07C646.44 223.263 647.191 222.42 647.668 221.54V218.24C647.485 218.167 647.191 218.093 646.788 218.02C646.421 217.947 646 217.873 645.523 217.8C645.083 217.727 644.625 217.672 644.148 217.635C643.708 217.598 643.305 217.58 642.938 217.58C640.958 217.58 639.491 217.947 638.538 218.68C637.585 219.377 637.108 220.257 637.108 221.32C637.108 222.64 637.475 223.63 638.208 224.29C638.978 224.95 640.005 225.28 641.288 225.28ZM682.819 231V215.16C682.819 212.667 682.434 210.87 681.664 209.77C680.894 208.67 679.537 208.12 677.594 208.12C675.944 208.12 674.532 208.578 673.359 209.495C672.222 210.375 671.434 211.512 670.994 212.905C670.994 215.912 670.994 218.937 670.994 221.98C671.03 224.987 671.049 227.993 671.049 231H663.349V202.125H669.399L670.224 206.25H671.049C672.002 204.893 673.267 203.738 674.844 202.785C676.42 201.795 678.474 201.3 681.004 201.3C682.544 201.3 683.9 201.502 685.074 201.905C686.284 202.272 687.274 202.932 688.044 203.885C688.85 204.802 689.455 206.048 689.859 207.625C690.299 209.202 690.519 211.182 690.519 213.565V231H682.819ZM724.712 220.88C724.712 222.42 724.73 224.015 724.767 225.665C724.804 227.315 724.969 229.112 725.262 231.055H719.927L718.827 227.04H718.112C717.269 228.507 716.059 229.68 714.482 230.56C712.942 231.403 711.09 231.825 708.927 231.825C705.077 231.825 702.089 230.633 699.962 228.25C697.835 225.83 696.772 222.108 696.772 217.085C696.772 214.665 697.065 212.483 697.652 210.54C698.275 208.597 699.174 206.947 700.347 205.59C701.557 204.233 703.042 203.188 704.802 202.455C706.562 201.722 708.597 201.355 710.907 201.355C712.19 201.355 713.29 201.465 714.207 201.685C715.16 201.868 716.095 202.107 717.012 202.4V192.5H724.712V220.88ZM710.907 225.39C712.63 225.39 713.969 225.005 714.922 224.235C715.875 223.428 716.572 222.292 717.012 220.825V209.275C716.352 208.762 715.637 208.395 714.867 208.175C714.134 207.918 713.162 207.79 711.952 207.79C709.495 207.79 707.662 208.505 706.452 209.935C705.279 211.365 704.692 213.822 704.692 217.305C704.692 219.725 705.187 221.687 706.177 223.19C707.204 224.657 708.78 225.39 710.907 225.39ZM7.6 291.9H3.2V287.5H20.14V291.9H15.74V321.6H20.14V326H3.2V321.6H7.6V291.9ZM45.7532 326V310.16C45.7532 307.667 45.3682 305.87 44.5982 304.77C43.8282 303.67 42.4716 303.12 40.5282 303.12C38.8782 303.12 37.4666 303.578 36.2932 304.495C35.1566 305.375 34.3682 306.512 33.9282 307.905C33.9282 310.912 33.9282 313.937 33.9282 316.98C33.9649 319.987 33.9832 322.993 33.9832 326H26.2832V297.125H32.3332L33.1582 301.25H33.9832C34.9366 299.893 36.2016 298.738 37.7782 297.785C39.3549 296.795 41.4082 296.3 43.9382 296.3C45.4782 296.3 46.8349 296.502 48.0082 296.905C49.2182 297.272 50.2082 297.932 50.9782 298.885C51.7849 299.802 52.3899 301.048 52.7932 302.625C53.2332 304.202 53.4532 306.182 53.4532 308.565V326H45.7532ZM83.1365 324.24C81.8898 325.083 80.3865 325.725 78.6265 326.165C76.9032 326.605 75.1065 326.825 73.2365 326.825C70.7432 326.825 68.6348 326.458 66.9115 325.725C65.2248 324.992 63.8315 323.947 62.7315 322.59C61.6682 321.233 60.8982 319.638 60.4215 317.805C59.9448 315.935 59.7065 313.863 59.7065 311.59C59.7065 306.787 60.8798 303.047 63.2265 300.37C65.6098 297.657 69.0565 296.3 73.5665 296.3C75.7665 296.3 77.5632 296.483 78.9565 296.85C80.3865 297.18 81.6515 297.62 82.7515 298.17L80.8815 304.33C79.9282 303.927 78.9748 303.633 78.0215 303.45C77.1048 303.23 76.0232 303.12 74.7765 303.12C72.4665 303.12 70.6882 303.798 69.4415 305.155C68.2315 306.475 67.6265 308.62 67.6265 311.59C67.6265 312.763 67.7732 313.863 68.0665 314.89C68.3598 315.88 68.8182 316.76 69.4415 317.53C70.0648 318.3 70.8532 318.905 71.8065 319.345C72.7598 319.785 73.8782 320.005 75.1615 320.005C76.7015 320.005 77.9115 319.877 78.7915 319.62C79.7082 319.327 80.5698 318.942 81.3765 318.465L83.1365 324.24ZM112.477 323.36C111.231 324.313 109.526 325.138 107.362 325.835C105.236 326.495 102.944 326.825 100.487 326.825C95.5373 326.825 91.9073 325.468 89.5973 322.755C87.2873 320.042 86.1323 316.32 86.1323 311.59C86.1323 306.567 87.4339 302.772 90.0373 300.205C92.6406 297.602 96.3073 296.3 101.037 296.3C102.577 296.3 104.099 296.502 105.602 296.905C107.106 297.272 108.444 297.913 109.617 298.83C110.791 299.71 111.726 300.92 112.422 302.46C113.156 303.963 113.522 305.833 113.522 308.07C113.522 308.84 113.467 309.683 113.357 310.6C113.284 311.517 113.137 312.47 112.917 313.46H93.6673C93.8506 315.953 94.5656 317.805 95.8123 319.015C97.0956 320.188 99.1673 320.775 102.027 320.775C103.751 320.775 105.291 320.537 106.647 320.06C108.041 319.547 109.104 319.033 109.837 318.52L112.477 323.36ZM100.927 302.35C98.6539 302.35 96.9673 302.973 95.8673 304.22C94.7673 305.43 94.1256 306.988 93.9423 308.895H106.372C106.519 306.878 106.152 305.283 105.272 304.11C104.392 302.937 102.944 302.35 100.927 302.35ZM139.909 326V310.16C139.909 307.667 139.524 305.87 138.754 304.77C137.984 303.67 136.627 303.12 134.684 303.12C133.034 303.12 131.622 303.578 130.449 304.495C129.312 305.375 128.524 306.512 128.084 307.905C128.084 310.912 128.084 313.937 128.084 316.98C128.12 319.987 128.139 322.993 128.139 326H120.439V297.125H126.489L127.314 301.25H128.139C129.092 299.893 130.357 298.738 131.934 297.785C133.51 296.795 135.564 296.3 138.094 296.3C139.634 296.3 140.99 296.502 142.164 296.905C143.374 297.272 144.364 297.932 145.134 298.885C145.94 299.802 146.545 301.048 146.949 302.625C147.389 304.202 147.609 306.182 147.609 308.565V326H139.909ZM151.992 297.125H156.392V293.165L164.092 291.13V297.125H171.847V303.56H164.092V313.57C164.092 315.88 164.312 317.548 164.752 318.575C165.228 319.565 166.145 320.06 167.502 320.06C168.345 320.06 169.06 320.005 169.647 319.895C170.233 319.748 170.857 319.528 171.517 319.235L173.112 325.01C171.938 325.523 170.582 325.963 169.042 326.33C167.538 326.697 166.072 326.88 164.642 326.88C161.782 326.88 159.692 326.183 158.372 324.79C157.052 323.36 156.392 321.087 156.392 317.97V303.56H151.992V297.125ZM178.683 297.125H186.383V326H178.683V297.125ZM177.528 289.92C177.528 288.747 177.95 287.775 178.793 287.005C179.636 286.198 180.828 285.795 182.368 285.795C183.945 285.795 185.191 286.198 186.108 287.005C187.025 287.812 187.483 288.783 187.483 289.92C187.483 290.983 187.025 291.9 186.108 292.67C185.191 293.44 183.945 293.825 182.368 293.825C180.828 293.825 179.636 293.44 178.793 292.67C177.95 291.9 177.528 290.983 177.528 289.92ZM205.379 312.085L206.534 316.54H207.414L208.239 311.975L213.629 297.125H221.934L208.734 326.275H204.334L190.584 297.125H199.549L205.379 312.085ZM249.494 323.36C248.247 324.313 246.542 325.138 244.379 325.835C242.252 326.495 239.961 326.825 237.504 326.825C232.554 326.825 228.924 325.468 226.614 322.755C224.304 320.042 223.149 316.32 223.149 311.59C223.149 306.567 224.451 302.772 227.054 300.205C229.657 297.602 233.324 296.3 238.054 296.3C239.594 296.3 241.116 296.502 242.619 296.905C244.122 297.272 245.461 297.913 246.634 298.83C247.807 299.71 248.742 300.92 249.439 302.46C250.172 303.963 250.539 305.833 250.539 308.07C250.539 308.84 250.484 309.683 250.374 310.6C250.301 311.517 250.154 312.47 249.934 313.46H230.684C230.867 315.953 231.582 317.805 232.829 319.015C234.112 320.188 236.184 320.775 239.044 320.775C240.767 320.775 242.307 320.537 243.664 320.06C245.057 319.547 246.121 319.033 246.854 318.52L249.494 323.36ZM237.944 302.35C235.671 302.35 233.984 302.973 232.884 304.22C231.784 305.43 231.142 306.988 230.959 308.895H243.389C243.536 306.878 243.169 305.283 242.289 304.11C241.409 302.937 239.961 302.35 237.944 302.35ZM257.4 318.52C257.913 318.777 258.5 319.033 259.16 319.29C259.857 319.547 260.59 319.785 261.36 320.005C262.167 320.225 262.973 320.408 263.78 320.555C264.623 320.702 265.467 320.775 266.31 320.775C267.593 320.775 268.583 320.573 269.28 320.17C270.013 319.767 270.38 319.015 270.38 317.915C270.38 317.035 269.903 316.393 268.95 315.99C267.997 315.55 266.823 315.128 265.43 314.725C264.403 314.432 263.322 314.083 262.185 313.68C261.085 313.277 260.058 312.745 259.105 312.085C258.188 311.388 257.418 310.49 256.795 309.39C256.208 308.29 255.915 306.897 255.915 305.21C255.915 302.313 256.813 300.113 258.61 298.61C260.407 297.07 262.992 296.3 266.365 296.3C268.565 296.3 270.618 296.502 272.525 296.905C274.468 297.272 276.027 297.712 277.2 298.225L275.605 304.055C274.652 303.688 273.423 303.322 271.92 302.955C270.453 302.552 268.95 302.35 267.41 302.35C266.127 302.35 265.173 302.552 264.55 302.955C263.927 303.322 263.615 303.982 263.615 304.935C263.615 305.778 264.092 306.42 265.045 306.86C266.035 307.263 267.227 307.667 268.62 308.07C269.647 308.363 270.71 308.712 271.81 309.115C272.947 309.482 273.973 309.995 274.89 310.655C275.807 311.315 276.558 312.177 277.145 313.24C277.768 314.267 278.08 315.568 278.08 317.145C278.08 320.225 277.072 322.608 275.055 324.295C273.075 325.982 270.087 326.825 266.09 326.825C263.927 326.825 261.91 326.623 260.04 326.22C258.17 325.853 256.648 325.303 255.475 324.57L257.4 318.52Z" fill="#FF9041"/>
</svg>
